<?xml version="1.0" standalone="no"?>
<!DOCTYPE svg PUBLIC "-//W3C//DTD SVG 20010904//EN"
 "http://www.w3.org/TR/2001/REC-SVG-20010904/DTD/svg10.dtd">
<svg version="1.0" xmlns="http://www.w3.org/2000/svg"
 width="1000.000000pt" height="1000.000000pt" viewBox="0 0 1000.000000 1000.000000"
 preserveAspectRatio="xMidYMid meet">
<metadata>
Created by potrace 1.11, written by Peter Selinger 2001-2013
</metadata>
<g transform="translate(0.000000,1000.000000) scale(0.100000,-0.100000)"
fill="#000000" stroke="none">
<path d="M3590 9995 c-8 -2 -32 -6 -53 -10 -22 -3 -35 -10 -31 -16 3 -6 0 -9
-7 -8 -8 1 -27 -4 -44 -10 -51 -22 -146 -41 -217 -45 -39 -2 -76 -9 -86 -17
-25 -21 -60 -39 -73 -39 -7 0 -27 -11 -44 -25 -18 -13 -36 -21 -41 -17 -5 4
-2 -2 6 -12 10 -13 10 -17 3 -12 -8 4 -13 2 -13 -4 0 -7 -9 -25 -20 -40 -11
-16 -23 -41 -26 -57 -4 -22 -16 -33 -45 -46 -21 -9 -39 -20 -39 -23 0 -7 121
0 135 7 9 5 43 8 127 12 14 1 42 -5 61 -12 29 -11 34 -19 33 -42 -1 -15 -5
-31 -9 -35 -11 -11 -137 -11 -137 1 0 5 -4 4 -9 -4 -8 -12 -12 -13 -25 -1 -9
7 -19 10 -23 6 -3 -3 0 -6 7 -6 15 0 -26 -33 -53 -43 -11 -4 -21 -16 -24 -27
-3 -11 -14 -22 -24 -25 -25 -8 -60 -45 -53 -57 3 -4 0 -8 -7 -8 -7 0 -23 -10
-36 -22 -21 -19 -28 -21 -53 -11 -17 6 -30 7 -30 2 0 -5 7 -9 16 -9 9 0 14 -5
12 -11 -2 -6 -7 -10 -11 -10 -4 1 -16 1 -27 1 -11 0 -24 8 -27 18 -8 20 -33
47 -44 47 -4 0 -11 4 -16 9 -4 5 -3 6 3 3 6 -4 22 5 34 18 13 14 34 25 47 25
13 0 32 9 43 20 11 11 20 15 20 9 0 -8 5 -7 16 2 14 12 14 14 -2 26 -20 15
-22 13 34 43 23 13 42 27 42 31 0 22 -67 19 -138 -7 -45 -17 -68 -49 -50 -71
6 -7 4 -22 -7 -42 -8 -17 -17 -31 -18 -31 -1 0 -16 -4 -34 -9 -28 -8 -31 -7
-36 15 -3 16 3 35 17 51 11 15 15 24 8 20 -6 -5 -31 -11 -54 -15 -24 -4 -41
-11 -38 -15 3 -4 -22 -23 -56 -41 -56 -31 -83 -40 -226 -76 -46 -12 -138 -84
-138 -108 0 -6 -7 -15 -16 -20 -8 -5 -21 -18 -27 -29 -45 -78 -64 -103 -78
-103 -23 0 -46 -30 -52 -69 -6 -38 -40 -67 -74 -63 -16 2 -23 -2 -23 -12 0 -9
-7 -16 -15 -16 -22 0 -192 -176 -181 -188 3 -2 -6 -14 -20 -25 -14 -11 -36
-43 -49 -73 -49 -110 -95 -365 -76 -416 9 -24 6 -32 -24 -68 -19 -23 -36 -52
-36 -63 -1 -12 -2 -29 -3 -37 -1 -8 2 -20 6 -26 7 -10 16 -58 22 -119 1 -17
10 -42 19 -56 16 -25 63 -55 80 -51 4 1 7 -2 7 -8 0 -5 -4 -10 -10 -10 -5 0
-8 -15 -5 -35 3 -25 0 -35 -10 -35 -10 0 -13 -13 -12 -47 2 -27 6 -54 10 -60
20 -31 32 -120 19 -136 -17 -21 -14 -235 3 -297 9 -30 27 -102 41 -160 13 -58
29 -106 34 -108 6 -2 10 -12 10 -22 0 -9 7 -23 15 -30 8 -7 15 -19 15 -27 0
-8 5 -11 10 -8 6 4 10 -7 10 -24 0 -17 4 -31 10 -31 5 0 15 -11 22 -24 11 -20
16 -22 28 -13 19 15 21 59 4 72 -12 8 -9 15 11 39 29 34 33 46 7 23 -25 -23
-42 -21 -42 2 0 23 18 73 29 81 4 3 18 23 31 45 13 22 32 50 43 63 16 17 18
25 9 34 -9 9 -16 8 -29 -4 -10 -9 -29 -19 -43 -22 -22 -6 -23 -5 -9 6 9 7 21
23 28 36 6 12 18 22 25 22 8 0 17 7 20 16 9 22 8 24 -9 24 -9 0 -20 -11 -26
-24 -11 -22 -35 -36 -67 -36 -19 0 -5 39 24 71 13 14 24 37 24 51 0 14 7 31
15 38 20 16 20 80 1 80 -8 0 -18 -4 -21 -10 -3 -5 -10 -10 -16 -10 -11 0 -13
40 -1 41 4 0 17 2 29 3 12 1 54 35 95 74 40 40 79 72 86 72 6 0 12 11 12 25 0
14 -4 25 -10 25 -18 0 -10 45 10 58 13 8 20 23 20 42 0 18 6 33 15 36 8 4 15
12 15 18 0 7 13 30 30 52 16 21 30 45 30 52 0 6 4 12 9 12 5 0 12 10 16 23 10
36 28 71 48 94 15 17 18 31 14 57 -5 30 -1 40 24 63 16 15 29 34 29 41 0 7 12
25 26 40 14 15 31 39 38 54 7 15 49 68 94 116 73 78 86 88 110 84 15 -3 36
-11 47 -17 39 -25 145 -50 145 -35 0 5 -5 10 -10 10 -14 0 -59 51 -60 68 -1
46 131 -64 146 -122 6 -26 76 -83 206 -171 20 -13 39 -29 43 -35 3 -6 10 -8
15 -5 5 3 11 1 15 -5 8 -12 25 -13 25 -1 0 5 -8 11 -17 15 -26 8 -56 29 -71
48 -7 10 -40 38 -72 63 -33 26 -60 51 -60 56 0 6 -7 17 -15 25 -8 9 -15 20
-15 25 0 14 28 11 37 -5 13 -23 91 -76 112 -76 11 0 33 -11 49 -25 17 -14 36
-25 44 -25 8 0 18 -4 23 -9 6 -6 28 -13 51 -16 31 -5 45 -3 57 9 13 13 26 15
54 10 33 -6 35 -8 15 -15 -38 -14 -24 -22 28 -16 54 6 84 1 74 -14 -3 -5 6 -9
20 -9 14 0 26 -4 26 -9 0 -15 33 -18 55 -5 30 18 85 6 97 -22 6 -13 15 -24 20
-24 10 0 10 3 -1 33 -10 25 -10 25 40 20 40 -4 53 -1 63 13 7 9 18 14 25 10 8
-5 4 -13 -11 -26 -31 -26 -8 -25 25 0 16 13 40 20 66 20 30 0 41 4 41 15 0 8
6 15 13 16 48 4 99 5 89 1 -29 -9 -7 -17 47 -17 52 0 57 2 38 12 -19 11 -15
12 35 13 35 0 58 -4 60 -12 3 -9 13 -9 39 -1 l34 11 -29 1 c-16 1 -27 3 -24 6
9 10 82 12 108 4 24 -7 23 -7 -7 -8 -17 -1 -35 -6 -38 -11 -8 -13 129 -7 165
7 14 6 39 8 55 6 17 -2 50 -4 75 -3 32 0 41 -3 30 -9 -21 -14 35 -34 72 -26
16 4 28 2 28 -4 0 -13 -48 -18 -85 -9 -23 6 -33 4 -42 -9 -7 -9 -13 -22 -13
-27 0 -6 7 -3 14 7 7 9 24 17 37 16 l24 -1 -25 -9 c-18 -6 -7 -7 37 -5 36 2
73 10 87 20 14 9 30 16 35 16 15 0 1 -32 -23 -53 l-21 -18 22 10 c12 6 25 16
28 21 3 6 15 10 26 10 17 0 18 3 9 20 -6 11 -7 20 -3 20 5 0 16 -9 26 -20 20
-23 39 -27 31 -5 -4 9 0 15 10 15 9 0 16 -4 16 -10 0 -5 9 -10 20 -10 25 0 25
-5 -1 -46 -24 -39 -10 -46 19 -9 22 28 34 33 26 11 -4 -9 2 -16 17 -18 12 -2
27 -12 33 -23 6 -11 14 -22 17 -25 3 -3 8 -13 12 -22 7 -20 27 -24 27 -6 0 24
17 -7 44 -78 15 -40 36 -80 46 -89 11 -10 20 -24 20 -32 0 -7 5 -13 11 -13 6
0 8 9 4 20 -4 11 -2 20 4 20 6 0 12 -10 12 -22 1 -13 3 -34 4 -48 2 -14 6 -72
9 -130 3 -58 5 -106 6 -107 0 -2 5 -3 10 -3 7 0 8 20 5 56 -7 61 8 69 19 11 4
-23 15 -38 31 -45 20 -9 23 -9 18 3 -3 8 -9 15 -13 15 -17 0 -31 62 -35 155
-2 54 -8 101 -13 104 -11 7 -36 171 -27 179 3 3 14 -3 26 -14 17 -16 19 -25
14 -69 -5 -34 -4 -47 3 -40 6 6 12 27 14 47 l3 38 45 -36 c25 -20 47 -41 50
-47 3 -7 12 -13 20 -13 8 -1 24 -5 35 -9 17 -5 16 -3 -4 12 -36 28 -141 132
-141 141 0 4 4 2 8 -4 10 -15 57 -30 48 -15 -5 7 -1 8 9 4 12 -4 13 -8 5 -13
-13 -8 -5 -30 10 -30 4 0 13 12 18 28 9 22 10 19 5 -20 -4 -33 -2 -48 6 -48 6
0 11 12 11 26 0 15 4 23 11 19 6 -4 8 -13 5 -21 -7 -18 12 -29 54 -29 23 0 34
-4 32 -13 -3 -15 20 -16 36 0 9 9 12 8 12 -4 0 -10 18 -23 48 -34 59 -22 92
-55 85 -85 -6 -21 -7 -21 -20 -4 -7 11 -13 14 -13 9 0 -21 23 -33 43 -23 29
16 47 -6 21 -26 -17 -13 -17 -14 -1 -15 20 0 21 -4 6 -31 -8 -16 -13 -18 -25
-8 -12 10 -13 9 -8 -7 4 -10 11 -25 17 -31 5 -7 6 -20 3 -29 -5 -12 -2 -15 10
-10 12 5 15 0 13 -22 -2 -15 1 -33 6 -41 5 -9 5 -16 -2 -18 -14 -5 -3 -53 13
-60 16 -6 9 -44 -15 -83 l-15 -25 22 19 c26 22 27 18 7 -20 -14 -27 -14 -29 5
-32 15 -3 19 -9 16 -28 -3 -13 -8 -29 -12 -35 -4 -7 0 -9 14 -5 11 4 23 2 27
-4 3 -5 18 -10 33 -10 15 0 33 -4 41 -9 11 -7 10 -10 -4 -18 -16 -9 -16 -10 1
-17 11 -4 20 -2 22 3 6 17 32 13 32 -5 0 -9 -6 -14 -13 -11 -7 3 -21 -1 -31
-8 -16 -13 -15 -14 18 -20 41 -8 43 -12 19 -32 -16 -13 -16 -14 9 -10 18 3 25
0 21 -7 -15 -28 -37 -45 -63 -51 -16 -3 -31 -13 -34 -22 -5 -12 -3 -13 6 -6 7
6 22 13 33 15 11 3 28 9 38 13 12 5 17 2 17 -9 0 -11 -9 -16 -27 -17 -17 0
-22 -3 -13 -6 23 -9 30 -26 18 -41 -9 -10 -8 -16 3 -23 8 -5 19 -7 25 -5 6 2
17 0 25 -5 10 -6 8 -9 -11 -9 -14 0 -20 -4 -14 -8 25 -16 -1 -83 -26 -67 -5 3
-10 2 -10 -3 0 -17 28 -22 34 -6 7 19 60 18 77 -2 12 -15 10 -16 -24 -12 -20
2 -37 0 -37 -4 0 -4 6 -8 13 -8 17 0 53 -38 44 -46 -4 -4 -22 5 -41 20 -36 27
-56 33 -56 16 0 -5 7 -10 15 -10 8 0 15 -5 15 -11 0 -6 -8 -8 -19 -4 -11 3
-23 0 -27 -6 -5 -9 5 -11 39 -7 26 3 44 2 41 -3 -3 -5 9 -15 27 -23 17 -7 27
-16 21 -20 -6 -3 -23 -1 -38 6 -22 10 -28 10 -32 0 -2 -6 -8 -12 -14 -12 -6 0
-8 7 -4 15 4 11 -2 15 -20 15 -14 0 -32 7 -40 15 -9 8 -20 15 -26 15 -18 0 10
-27 43 -40 27 -12 28 -14 14 -30 -14 -15 -13 -18 10 -28 14 -6 25 -17 25 -23
0 -8 4 -8 15 1 8 6 22 10 31 8 16 -3 17 -4 1 -20 -21 -21 -22 -35 -2 -18 8 7
15 9 15 4 0 -5 5 -1 11 9 8 14 17 17 42 11 18 -4 47 -6 65 -6 17 1 32 -3 32
-8 0 -6 9 -10 19 -10 28 0 35 -18 9 -22 l-23 -3 25 -23 c21 -19 22 -24 10 -32
-13 -8 -12 -10 3 -10 12 0 17 8 17 27 l0 27 16 -22 c8 -12 12 -27 9 -32 -3 -6
-2 -10 4 -10 5 0 13 5 16 10 10 17 48 12 41 -5 -6 -15 12 -23 69 -29 25 -3 30
-8 31 -29 1 -15 -3 -24 -8 -21 -4 3 -6 10 -3 15 4 5 -1 9 -10 9 -25 0 7 -41
49 -64 20 -10 33 -23 30 -27 -3 -5 0 -9 5 -9 20 0 11 29 -20 65 -17 19 -27 35
-22 35 5 0 13 -4 19 -10 9 -9 53 -18 97 -19 10 -1 15 -6 12 -11 -4 -7 -13 -7
-26 0 -12 7 -19 7 -19 1 0 -6 -7 -8 -15 -5 -8 4 -15 2 -15 -4 0 -12 30 -38 30
-26 1 5 14 -7 30 -26 17 -19 30 -29 30 -23 0 6 3 19 6 27 5 12 2 15 -10 10 -9
-3 -16 -1 -16 6 0 7 11 9 30 6 31 -4 41 7 15 18 -25 9 -17 23 15 28 20 3 30 0
30 -8 0 -7 -4 -14 -10 -16 -5 -1 -6 -8 -2 -13 4 -6 16 -1 31 14 16 17 18 22 6
18 -11 -5 -15 -3 -13 5 3 7 16 13 29 13 13 0 28 6 32 13 10 15 47 16 47 1 0
-6 -7 -9 -15 -5 -16 6 -21 -9 -6 -18 5 -4 21 8 35 25 29 34 45 34 26 0 -10
-20 -7 -25 13 -22 5 1 5 -3 2 -10 -4 -6 2 -19 14 -30 26 -24 27 -47 4 -56 -10
-3 -26 -15 -35 -27 -9 -11 -20 -17 -24 -13 -4 4 1 16 11 27 10 11 15 23 12 27
-4 3 -7 1 -7 -5 0 -7 -6 -12 -14 -12 -10 0 -13 -9 -11 -30 2 -16 0 -32 -6 -35
-5 -4 -9 -14 -9 -23 0 -13 2 -14 9 -4 7 12 12 12 32 0 13 -7 26 -14 28 -15 1
-1 0 -7 -4 -13 -5 -8 -11 -7 -23 2 -11 10 -16 10 -19 1 -3 -8 -13 -9 -36 -2
-42 12 -44 11 -22 -5 11 -8 24 -12 31 -9 17 6 24 -34 9 -47 -10 -8 -19 -8 -34
0 -14 7 -21 7 -21 0 0 -5 5 -10 11 -10 5 0 7 -4 4 -10 -10 -16 -21 -11 -33 15
-8 18 -19 25 -39 25 -26 -1 -27 -1 -8 -12 11 -7 26 -18 33 -25 19 -19 -6 -27
-42 -13 -35 13 -59 13 -51 0 3 -5 19 -10 36 -10 16 0 29 -4 29 -9 0 -17 70 -7
75 11 3 9 17 19 30 22 14 4 25 11 25 16 0 5 8 7 18 4 14 -5 14 -4 3 4 -21 15
-22 42 -3 40 38 -3 51 2 46 17 -4 8 -1 15 5 15 6 0 11 -4 11 -10 0 -5 5 -10
10 -10 6 0 16 -4 23 -10 56 -45 70 -59 59 -60 -7 0 -20 7 -29 16 -9 8 -22 13
-29 10 -8 -3 -13 0 -11 6 1 7 -7 14 -17 16 -18 4 -19 3 -3 -13 20 -19 21 -27
5 -43 -13 -13 5 -42 26 -42 6 0 3 5 -7 11 -9 6 -15 15 -12 20 4 5 11 6 17 3 7
-4 8 -2 4 4 -11 19 20 14 35 -5 12 -15 12 -16 -3 -10 -25 9 -23 -9 3 -26 14
-10 22 -29 25 -63 3 -27 7 -55 10 -63 2 -8 -1 -18 -8 -23 -10 -6 -10 -8 0 -8
21 0 13 -28 -10 -33 l-23 -4 23 -2 c15 -1 22 -8 23 -23 0 -13 3 -42 5 -65 5
-47 0 -51 -34 -27 -19 13 -22 13 -22 0 0 -8 6 -17 13 -20 6 -3 0 -4 -15 -1
-15 3 -30 1 -33 -5 -3 -6 1 -7 10 -4 11 5 18 0 22 -15 3 -13 11 -20 19 -17 8
3 13 2 13 -2 -3 -20 2 -31 14 -26 8 3 20 -3 28 -12 11 -13 11 -18 1 -21 -6 -3
-9 -9 -6 -15 7 -11 16 -80 15 -118 0 -14 3 -32 6 -40 4 -8 7 -33 8 -55 0 -22
8 -55 18 -74 9 -19 15 -37 12 -39 -3 -3 -5 0 -5 6 0 7 -4 12 -9 12 -5 0 -5
-16 -1 -37 10 -43 12 -296 3 -365 -3 -26 -10 -45 -15 -42 -5 3 -7 12 -4 20 3
8 1 14 -4 14 -12 0 -12 -13 0 -65 11 -49 -9 -90 -41 -80 -24 8 -26 -10 -1 -20
16 -6 16 -7 -2 -21 -11 -8 -14 -14 -8 -14 7 0 12 -4 12 -10 0 -5 -7 -10 -15
-10 -8 0 -15 -9 -15 -20 0 -25 -20 -27 -21 -2 0 13 -2 14 -6 2 -3 -8 -10 -18
-16 -21 -5 -4 -5 -9 2 -13 6 -4 11 -1 11 6 0 7 11 1 25 -14 30 -33 32 -98 3
-124 -21 -20 -22 -16 -6 23 12 31 11 73 -3 88 -11 11 -31 -13 -23 -27 9 -14
-9 -8 -29 9 -20 18 -20 18 -3 -9 13 -20 15 -31 7 -45 -9 -16 -10 -16 -11 -1 0
11 -6 15 -21 11 -12 -3 -18 -11 -15 -19 3 -8 0 -14 -6 -14 -7 0 -7 -4 0 -13
14 -17 3 -31 -26 -35 -20 -2 -22 1 -16 20 3 13 9 28 13 33 3 6 -1 3 -10 -7 -9
-9 -19 -14 -23 -11 -8 9 -6 -17 3 -42 11 -26 -27 -69 -46 -53 -9 7 -13 7 -13
-1 0 -6 7 -14 15 -17 22 -9 -3 -43 -27 -36 -10 2 -18 -1 -18 -7 0 -6 9 -11 21
-11 11 0 17 -4 14 -10 -12 -20 -41 -10 -52 18 -9 23 -11 24 -12 6 -1 -12 -8
-27 -16 -34 -8 -7 -15 -16 -15 -21 0 -5 7 -6 15 -3 22 9 18 -9 -5 -24 -14 -9
-19 -20 -16 -37 3 -14 1 -27 -4 -30 -5 -3 -10 6 -12 20 -5 44 -25 35 -43 -20
l-7 -20 -8 20 c-6 14 -9 15 -9 5 -1 -9 4 -21 10 -27 7 -7 9 -19 6 -27 -7 -17
-37 -22 -37 -6 0 6 5 10 12 10 6 0 9 3 5 6 -3 4 -14 4 -23 0 -15 -6 -15 -9 5
-30 12 -13 21 -27 20 -32 -5 -31 2 -56 15 -51 10 4 13 1 9 -9 -4 -12 -18 -15
-59 -12 -57 4 -74 -8 -25 -18 17 -4 32 -13 36 -22 8 -21 -3 -28 -25 -15 -15
10 -19 9 -24 -4 -3 -8 -13 -13 -21 -10 -9 4 -12 1 -8 -9 4 -10 0 -12 -10 -8
-12 4 -15 0 -14 -15 1 -13 8 -21 19 -21 25 0 23 -16 -3 -23 -13 -4 -18 -10
-14 -17 6 -9 9 -9 15 0 6 9 11 7 19 -8 7 -14 17 -19 28 -15 11 4 14 3 9 -5
-12 -20 4 -35 22 -20 10 7 14 8 10 4 -4 -5 -4 -14 2 -21 6 -7 1 -20 -16 -38
-28 -30 -35 -32 -52 -15 -9 9 -15 10 -20 2 -4 -6 -13 -13 -21 -16 -18 -5 -21
-69 -4 -86 18 -18 16 -35 -2 -28 -9 3 -15 0 -15 -8 0 -8 -8 -16 -19 -19 -14
-3 -17 0 -14 14 3 11 1 19 -5 19 -18 0 -43 -32 -38 -47 3 -8 6 -16 6 -18 0 -2
9 -1 20 2 23 6 50 -12 50 -35 0 -13 -3 -12 -20 3 -11 10 -23 15 -26 12 -11
-11 3 -32 32 -47 16 -8 30 -15 32 -16 1 -1 0 -8 -4 -17 -5 -15 -8 -15 -29 -1
-20 13 -24 13 -46 -6 l-24 -20 30 5 c31 5 75 -18 60 -32 -4 -5 -10 -2 -12 4
-3 9 -10 10 -23 3 -19 -10 -17 -41 2 -37 6 1 13 -4 16 -12 3 -9 0 -11 -7 -6
-7 4 -18 -1 -26 -11 -7 -11 -17 -15 -22 -10 -4 4 -1 13 8 19 24 15 4 60 -23
51 -14 -4 -18 0 -18 16 0 16 -4 20 -16 16 -9 -3 -20 -6 -26 -6 -6 0 -1 -8 11
-17 15 -13 19 -25 15 -41 -7 -24 -28 -26 -56 -3 -18 16 -98 23 -98 10 0 -8 38
-14 68 -10 27 4 10 -19 -20 -27 -25 -7 -34 -5 -36 5 -3 12 -6 11 -16 -3 -9
-11 -19 -14 -34 -10 -28 9 -29 26 -2 19 11 -3 20 0 20 6 0 6 -8 12 -17 12
-107 8 -114 8 -110 -4 2 -7 17 -11 35 -9 18 2 32 -1 32 -6 0 -20 -104 -34
-175 -22 -21 3 41 23 70 22 29 -1 29 0 10 14 -11 8 -28 13 -37 11 -11 -3 -15
0 -11 9 3 8 14 14 25 14 33 0 10 18 -32 25 -43 7 -55 25 -17 26 l22 0 -23 10
c-13 5 -46 10 -72 11 -27 1 -46 6 -43 11 3 5 19 6 35 3 34 -7 29 10 -8 24 -21
8 -30 26 -25 53 1 5 -13 6 -30 2 -22 -5 -29 -4 -25 4 4 6 -1 14 -11 18 -10 3
-31 17 -46 30 l-29 23 26 0 c14 0 26 5 26 10 0 10 -15 14 -34 11 -6 -1 -20 0
-33 4 -19 4 -23 10 -17 28 5 18 4 20 -7 9 -7 -6 -20 -12 -28 -12 -11 0 -10 4
5 15 16 13 17 16 4 25 -12 9 -10 10 8 5 12 -3 22 -2 22 3 0 6 -12 13 -26 16
-14 4 -35 16 -47 28 l-22 20 33 -4 c21 -3 31 -1 29 6 -2 6 -13 12 -25 14 -12
2 -22 8 -22 13 0 6 -7 17 -15 25 -8 9 -15 11 -15 5 0 -6 -4 -11 -10 -11 -5 0
-10 7 -10 15 0 8 -4 15 -10 15 -5 0 -10 7 -10 15 0 11 -12 15 -42 16 -24 0
-37 3 -30 6 17 7 15 38 -4 54 -14 11 -14 13 0 21 23 13 20 26 -6 27 -13 0 -39
1 -58 1 -22 1 -29 4 -21 9 10 7 7 12 -10 25 l-23 16 22 0 c13 0 22 6 22 16 0
11 -6 14 -20 9 -11 -3 -20 -2 -20 3 0 6 6 12 13 15 9 3 9 8 -2 21 -13 15 -15
15 -32 0 -17 -16 -19 -16 -26 2 -4 11 -14 24 -22 31 -9 7 -11 13 -5 13 5 0 15
-5 21 -11 17 -17 35 0 29 27 -4 16 -2 24 6 24 8 1 5 7 -6 15 -11 8 -28 12 -38
9 -12 -4 -18 -1 -16 8 2 7 -4 13 -12 13 -8 0 -20 4 -27 8 -6 4 -14 3 -17 -2
-3 -5 -15 -7 -26 -4 -31 8 -13 22 25 19 19 -2 35 1 35 7 0 6 8 2 19 -7 18 -16
19 -16 19 11 0 15 -3 33 -6 38 -4 6 -8 21 -10 34 -2 18 1 22 12 18 10 -4 16
-1 16 8 0 8 0 17 0 20 0 3 -3 4 -7 3 -5 -2 -7 -5 -6 -9 1 -3 -15 -5 -35 -6
-20 0 -30 2 -22 5 24 7 50 34 44 43 -9 15 13 10 26 -6 11 -13 14 -13 26 2 12
17 13 17 19 1 4 -10 11 -18 16 -18 14 0 11 14 -8 36 -20 21 -23 45 -8 56 6 5
-4 5 -21 2 -25 -5 -32 -2 -36 13 -6 28 2 53 17 53 9 0 12 6 9 15 -4 8 -2 15 4
15 6 0 13 -6 15 -12 3 -7 6 -4 6 8 1 17 6 20 32 16 l31 -5 -24 24 c-15 16 -26
21 -31 14 -5 -6 -7 -3 -4 7 3 9 -1 24 -9 35 -9 10 -13 13 -10 7 3 -6 0 -19 -7
-29 -11 -15 -13 -12 -9 19 4 36 5 37 24 19 17 -15 21 -15 29 -3 8 11 9 9 4 -9
-5 -16 -4 -21 4 -17 7 5 11 -2 11 -18 0 -14 5 -26 10 -26 6 0 10 9 10 20 0 11
5 20 10 20 6 0 10 -4 10 -10 0 -15 36 -12 49 4 9 10 8 15 -4 20 -17 6 -20 41
-5 51 6 3 10 13 10 21 0 11 -6 13 -20 9 -11 -4 -21 -2 -21 4 -1 6 -2 16 -3 22
0 5 -12 19 -26 30 -21 16 -22 19 -6 17 10 -2 21 3 23 10 3 6 0 12 -7 12 -6 0
-8 5 -5 10 4 7 -3 8 -21 4 -24 -6 -26 -5 -21 15 3 11 1 21 -3 21 -12 0 12 62
33 84 9 11 17 27 17 35 -1 14 -3 13 -14 -1 -7 -10 -19 -18 -25 -18 -8 0 -7 5
3 16 19 19 22 59 4 48 -7 -4 -5 2 5 13 9 11 14 22 11 26 -4 3 -3 14 1 24 5 10
7 22 6 26 -2 12 32 44 57 51 12 4 20 11 17 15 -5 9 38 31 62 31 13 0 14 3 5
12 -14 14 -16 32 -3 24 5 -4 11 0 14 6 3 10 14 9 50 -4 40 -14 47 -15 47 -3 0
8 6 15 13 15 8 0 7 3 -3 10 -8 5 -12 10 -10 12 40 26 51 28 73 14 12 -9 36
-14 52 -12 17 2 40 4 53 5 12 0 30 9 40 19 10 9 24 18 32 18 8 1 23 5 33 9 17
7 18 3 14 -36 -7 -68 -16 -86 -54 -104 -25 -12 -50 -15 -99 -11 -75 7 -114 15
-131 28 -7 5 -14 5 -18 -2 -3 -5 4 -14 17 -19 40 -15 191 -31 233 -25 40 7
115 42 115 54 0 4 26 5 58 4 33 -1 75 4 99 13 48 18 124 11 143 -12 10 -12 9
-15 -4 -15 -9 0 -16 -7 -16 -16 0 -12 -6 -15 -24 -10 -18 4 -29 1 -40 -15 -8
-12 -21 -19 -28 -17 -9 4 -14 -6 -15 -33 -2 -22 2 -39 8 -39 6 0 7 5 4 10 -3
6 2 10 12 11 10 0 13 3 6 5 -13 6 -6 34 8 34 4 0 6 -6 3 -14 -3 -8 2 -16 13
-19 16 -4 16 -5 1 -6 -20 -1 -23 -12 -7 -28 14 -14 47 -5 52 16 3 11 5 9 6 -6
1 -13 -6 -24 -18 -28 -18 -5 -18 -8 -5 -33 19 -36 18 -63 -1 -56 -8 4 -15 14
-15 25 0 10 -15 29 -33 43 -38 29 -52 33 -43 11 3 -10 -1 -15 -13 -15 -35 0
-51 -12 -51 -37 0 -21 -2 -23 -15 -13 -12 10 -16 9 -22 -6 -4 -11 -13 -25 -20
-32 -11 -12 -16 -12 -30 0 -12 10 -17 10 -20 1 -2 -7 -11 -9 -19 -6 -9 3 -14
-1 -14 -12 0 -9 7 -16 18 -14 39 4 48 -1 28 -16 -16 -12 -12 -13 35 -9 87 8
124 8 136 1 7 -4 14 -3 17 2 3 4 23 11 45 15 22 3 41 10 43 16 5 15 76 -8 87
-28 6 -9 11 -12 11 -5 0 15 -39 43 -62 43 -10 0 -18 5 -18 11 0 7 10 9 28 4
15 -4 52 -7 82 -7 30 1 57 -4 61 -10 4 -6 6 4 4 23 -1 18 -8 35 -14 37 -7 2
-11 -3 -9 -13 4 -26 -19 -30 -27 -5 -4 12 -12 19 -19 17 -7 -3 -19 -1 -26 3
-11 7 -10 11 3 24 14 14 19 14 51 1 33 -14 35 -14 30 2 -4 13 0 11 12 -5 10
-14 27 -22 45 -22 27 0 29 2 23 28 -7 26 -16 37 -39 45 -5 3 -7 7 -3 11 3 4
14 3 25 -3 10 -5 26 -12 36 -15 9 -3 17 -10 17 -17 0 -6 -7 -9 -15 -5 -8 3
-15 1 -15 -4 0 -17 38 -11 44 7 5 12 9 14 18 5 7 -7 18 -12 26 -12 11 0 11 2
0 13 -7 8 -20 16 -28 20 -11 4 -9 6 6 6 28 1 36 11 23 28 -9 10 -6 13 15 13
15 0 25 4 22 9 -3 5 -14 7 -24 5 -9 -2 -30 8 -47 22 -18 16 -23 24 -12 20 10
-3 23 -6 28 -6 6 0 8 -4 4 -9 -9 -15 49 -8 60 7 11 14 23 16 168 28 43 4 80
11 83 15 3 5 -3 10 -13 10 -45 3 -83 17 -83 30 0 6 4 8 9 4 5 -3 12 -1 15 4 4
5 2 12 -4 16 -16 10 -12 45 5 45 8 0 15 -5 15 -12 0 -6 3 -8 6 -5 4 4 -1 18
-10 31 -20 31 -21 42 -1 26 13 -11 15 -8 15 18 0 26 20 58 31 48 2 -2 10 2 17
10 7 8 8 14 2 14 -16 0 -12 70 5 76 12 5 12 9 -2 30 -14 22 -14 26 0 42 15 16
13 18 -19 28 -19 6 -37 7 -40 3 -12 -20 -21 -7 -21 31 0 33 4 40 19 40 16 0
17 2 6 14 -7 8 -16 12 -20 10 -4 -2 -9 0 -13 5 -9 16 18 51 40 51 16 0 17 2 5
10 -11 7 -22 2 -40 -18 -20 -22 -25 -23 -28 -10 -3 14 -8 15 -27 8 -15 -6 -27
-6 -30 0 -4 6 -1 10 4 10 6 0 11 5 11 10 0 6 -15 10 -32 10 -18 0 -40 4 -48
10 -18 11 106 7 134 -5 14 -6 18 -5 14 6 -3 9 -29 17 -76 22 -67 7 -142 30
-142 43 0 6 60 -3 86 -13 10 -3 12 0 8 10 -3 8 -23 18 -46 21 -35 6 -77 31
-67 40 8 7 149 11 149 4 0 -10 73 2 85 15 7 6 -6 8 -37 3 -32 -4 -48 -2 -48 5
0 8 -4 8 -14 0 -20 -17 -148 -9 -154 9 -3 8 1 11 10 7 18 -6 58 18 58 36 0 8
-3 8 -12 -1 -15 -15 -134 -16 -143 -2 -3 6 -10 10 -16 10 -5 0 -9 -4 -9 -10 0
-5 7 -10 15 -10 18 0 18 -5 5 -30 -6 -11 -16 -17 -25 -13 -13 4 -14 1 -5 -22
10 -26 9 -27 -17 -20 -16 4 -48 9 -72 11 l-44 4 27 -21 c34 -27 28 -34 -10
-14 -16 8 -35 15 -41 15 -7 0 -13 5 -13 10 0 6 7 10 16 10 14 0 14 2 0 15 -8
8 -20 15 -26 15 -15 0 -110 48 -138 70 -15 13 -18 20 -10 23 8 4 7 6 -4 6 -9
1 -20 -4 -23 -9 -3 -6 -17 -7 -31 -4 -36 9 -30 -13 9 -31 30 -14 30 -15 5 -10
-16 3 -28 1 -28 -4 0 -5 21 -12 47 -16 39 -6 44 -9 29 -17 -13 -7 -26 -7 -43
1 -33 15 -38 14 -22 -6 13 -15 10 -16 -31 -9 -25 4 -54 7 -65 7 -15 0 -16 2
-6 8 11 7 11 10 0 17 -16 10 -59 12 -53 3 2 -4 -3 -9 -11 -13 -8 -3 -17 -1
-20 5 -4 5 -11 7 -16 3 -6 -4 -2 -15 10 -28 21 -22 14 -55 -9 -41 -8 5 -9 10
-1 14 6 4 2 12 -11 20 -18 11 -20 11 -15 -3 8 -21 -11 -21 -34 0 -9 8 -23 17
-31 18 -37 6 -59 19 -54 31 2 7 -1 15 -7 18 -7 3 -12 -5 -12 -18 0 -13 3 -21
7 -19 14 9 17 -14 3 -26 -8 -7 -15 -8 -15 -3 0 6 -11 8 -25 5 -14 -2 -36 3
-50 12 -35 23 -52 20 -24 -4 l24 -21 -30 6 c-17 3 -64 -1 -105 -9 -48 -9 -81
-11 -92 -5 -14 8 -16 6 -11 -7 4 -11 3 -15 -5 -10 -6 3 -14 1 -17 -5 -5 -7 1
-9 15 -7 13 2 25 -3 28 -11 3 -10 0 -12 -12 -8 -17 7 -101 -21 -92 -31 7 -7
-14 -32 -26 -32 -6 0 -5 7 2 15 10 12 9 15 -6 15 -18 1 -18 1 -1 15 11 7 24
12 31 9 7 -3 21 5 32 17 19 22 19 22 -1 15 -40 -15 -85 -19 -85 -7 0 8 -10 6
-30 -4 -17 -9 -35 -13 -39 -10 -5 3 -11 -1 -14 -7 -3 -10 -9 -10 -25 -1 -17
10 -19 9 -15 -8 3 -10 9 -19 14 -19 22 0 5 -18 -34 -37 -38 -18 -43 -25 -44
-54 -1 -56 -2 -59 -20 -59 -13 0 -15 -2 -5 -8 10 -7 8 -12 -5 -24 -10 -8 -26
-18 -37 -22 -11 -4 -16 -12 -12 -21 3 -8 1 -15 -3 -15 -5 0 -11 6 -14 13 -7
19 -17 3 -20 -33 -2 -30 -3 -32 -37 -26 -19 3 -30 2 -24 -2 13 -8 7 -72 -7
-72 -5 0 -9 -7 -9 -16 0 -20 -20 -39 -49 -49 -13 -4 -20 -12 -17 -20 3 -9 0
-12 -10 -8 -10 4 -12 0 -8 -11 5 -12 2 -15 -12 -9 -12 4 -15 3 -10 -5 4 -7 0
-15 -9 -19 -13 -4 -15 -13 -11 -35 3 -18 2 -27 -4 -23 -6 3 -15 3 -21 -1 -8
-4 -4 -13 12 -25 22 -17 23 -19 4 -19 -15 0 -20 -7 -21 -30 -1 -18 5 -31 15
-35 13 -5 14 -7 1 -15 -12 -8 -13 -13 -2 -30 8 -13 8 -20 1 -20 -5 0 -8 -4 -4
-10 3 -5 0 -18 -7 -29 -11 -17 -10 -23 6 -34 17 -12 17 -15 2 -30 -15 -15 -15
-19 -1 -47 8 -16 11 -30 6 -30 -5 0 -11 -15 -13 -34 -2 -19 -1 -33 2 -31 3 2
12 0 20 -6 12 -7 12 -9 1 -9 -7 0 -11 -6 -7 -15 3 -8 1 -15 -3 -15 -5 0 -12 6
-14 13 -3 6 -6 -4 -6 -25 -1 -20 -7 -39 -13 -41 -8 -3 -6 -6 5 -6 9 -1 17 6
17 14 0 8 4 15 10 15 5 0 7 -7 4 -15 -4 -8 -1 -15 6 -15 6 0 3 -11 -9 -26 -23
-30 -28 -70 -8 -76 6 -3 13 -19 14 -36 5 -66 7 -71 19 -61 8 6 14 6 18 0 3 -5
0 -11 -6 -14 -10 -3 -11 -11 -1 -37 11 -29 10 -35 -4 -46 -14 -9 -15 -15 -5
-26 6 -8 13 -32 16 -53 3 -21 11 -42 18 -48 10 -6 8 -7 -4 -3 -26 8 -30 -8 -7
-27 18 -16 22 -30 20 -72 -1 -19 0 -19 7 -2 6 15 10 16 18 5 11 -16 11 -38 0
-57 -7 -11 -5 -13 9 -8 14 6 16 3 12 -15 -4 -14 0 -26 11 -34 9 -7 13 -16 9
-20 -4 -5 -12 -2 -17 6 -9 14 -14 7 -11 -12 2 -13 -27 -9 -32 5 -3 6 -6 -1 -6
-16 -1 -21 5 -30 19 -34 22 -6 34 -34 25 -62 -3 -11 -1 -22 5 -26 5 -3 10 -21
10 -38 0 -21 7 -36 20 -45 11 -7 20 -19 20 -28 0 -8 -5 -12 -10 -9 -6 4 -7 11
-4 17 5 7 1 9 -9 5 -10 -3 -17 -2 -17 2 0 5 -6 11 -14 14 -10 4 -12 0 -9 -14
6 -20 21 -34 38 -34 5 0 10 -16 10 -35 1 -20 4 -40 7 -45 7 -14 -2 -85 -12
-85 -4 0 -8 -10 -8 -22 0 -31 -19 -78 -32 -78 -5 0 -11 -10 -11 -22 -1 -17 -2
-19 -6 -5 -7 25 -30 21 -37 -7 -4 -15 -13 -23 -23 -22 -11 0 -17 -5 -17 -16 1
-10 -6 -20 -16 -23 -9 -3 -23 -23 -30 -45 -7 -22 -16 -38 -19 -36 -3 2 -12 -2
-19 -10 -7 -8 -8 -14 -2 -14 5 0 10 -7 10 -15 0 -8 5 -15 10 -15 6 0 10 -5 10
-10 0 -6 -3 -9 -7 -9 -27 4 -35 -3 -31 -26 4 -19 2 -23 -7 -15 -10 8 -14 2
-19 -25 -5 -26 -12 -35 -26 -35 -11 0 -20 -4 -20 -10 0 -13 67 -43 79 -35 6 3
21 0 33 -6 13 -7 36 -13 52 -14 16 -1 37 -11 47 -23 18 -22 39 -29 39 -13 0 5
-6 11 -12 14 -7 2 -10 7 -6 11 8 10 48 -16 48 -31 0 -6 -6 -13 -12 -16 -8 -3
-3 -9 12 -15 17 -7 29 -6 38 1 11 8 13 7 10 -5 -1 -10 5 -23 14 -30 10 -7 19
-26 21 -43 4 -38 7 -40 36 -32 15 4 21 10 15 19 -4 7 2 5 14 -5 12 -11 18 -26
15 -35 -4 -15 -3 -15 6 -2 8 12 13 12 23 2 9 -9 10 -19 1 -42 -12 -33 -9 -40
21 -40 12 0 16 3 10 8 -16 10 -14 74 2 68 8 -3 11 0 8 9 -3 8 -13 16 -22 18
-11 3 -8 5 8 6 l25 2 -24 10 c-18 7 -27 6 -32 -3 -5 -8 -10 -3 -14 15 -4 15
-11 27 -17 27 -5 0 -6 5 -3 10 9 15 19 12 51 -15 33 -29 57 -18 35 16 -9 15
-10 24 -2 32 8 8 14 1 22 -21 6 -18 15 -29 20 -26 5 3 6 11 2 17 -10 16 -13
57 -4 57 10 0 51 -56 51 -70 0 -5 7 -10 16 -10 11 0 14 5 10 16 -3 9 -6 20 -6
25 0 5 -6 9 -14 9 -16 0 -31 18 -23 26 8 8 47 -19 47 -32 0 -7 7 -25 15 -40
14 -27 15 -27 15 -6 0 13 6 22 16 22 8 0 13 -4 10 -8 -3 -5 1 -9 9 -9 8 0 11
5 8 10 -3 5 0 7 8 5 9 -3 13 -16 11 -32 -2 -18 1 -25 7 -21 6 3 11 12 11 20 0
8 4 16 9 19 5 4 7 -13 4 -38 -3 -29 1 -55 11 -74 14 -28 13 -42 -6 -42 -4 0
-8 11 -8 24 0 14 -11 37 -25 52 -14 15 -25 33 -25 40 0 8 -4 14 -10 14 -18 0
-11 -50 8 -57 25 -10 44 -31 40 -45 -2 -6 -20 4 -41 24 -20 20 -39 32 -42 28
-3 -5 -1 -11 5 -15 6 -4 8 -11 5 -16 -4 -5 0 -9 7 -9 9 0 9 -3 -2 -10 -9 -6
-18 -6 -24 0 -13 13 -29 13 -21 0 4 -6 1 -17 -5 -26 -18 -21 -20 -96 -2 -89 7
3 16 5 18 5 3 0 2 20 -2 45 -6 41 -4 45 14 45 12 0 24 -5 27 -10 4 -7 13 -7
26 0 15 9 19 7 19 -6 0 -10 -5 -14 -15 -10 -22 8 -19 -18 5 -39 24 -21 26 -40
5 -31 -12 4 -14 0 -9 -19 4 -15 2 -25 -5 -25 -6 0 -11 17 -11 39 0 23 -6 44
-16 52 -13 11 -14 9 -9 -14 4 -16 3 -27 -3 -27 -18 0 -37 -96 -21 -106 11 -6
2 -24 -11 -24 -5 0 -11 8 -13 17 -3 10 -5 2 -6 -18 0 -19 -7 -41 -13 -47 -10
-10 -10 -15 2 -23 13 -9 12 -10 -2 -5 -10 3 -25 9 -34 12 -12 5 -15 2 -12 -12
8 -41 -77 -88 -107 -58 -11 11 -18 11 -45 -2 -17 -9 -34 -13 -37 -10 -12 11
-32 -28 -21 -41 7 -9 7 -13 -1 -13 -10 0 -15 13 -12 33 2 11 -47 9 -54 -3 -3
-5 -12 -7 -20 -4 -8 4 -18 -1 -21 -10 -9 -25 -53 -20 -64 7 -8 21 -9 21 -9 1
-1 -28 -11 -36 -28 -23 -9 9 -13 8 -13 0 0 -6 -9 -11 -20 -11 -11 0 -32 -13
-46 -30 -15 -16 -31 -27 -35 -24 -5 3 -9 -2 -9 -11 0 -12 5 -15 17 -11 9 4 37
0 62 -8 25 -8 73 -17 106 -20 81 -8 124 -14 145 -21 10 -3 21 -1 25 5 4 7 12
7 25 0 24 -13 43 -13 35 0 -3 6 -1 10 4 10 16 0 13 -19 -4 -37 -17 -16 -16
-34 2 -40 6 -2 10 4 9 14 0 12 5 17 16 15 9 -1 19 2 23 8 3 5 11 10 16 10 6 0
7 -4 4 -10 -3 -5 -1 -10 5 -10 7 0 14 9 17 20 3 12 14 20 25 20 14 0 18 -5 14
-15 -8 -22 12 -18 24 5 14 26 37 25 61 -2 l19 -23 -9 26 c-13 35 -7 39 51 39
41 0 48 -3 48 -19 0 -11 -9 -26 -21 -35 l-21 -14 26 -17 c14 -9 30 -14 36 -10
5 3 10 1 10 -4 0 -16 -46 -13 -60 4 -19 23 -31 18 -24 -11 6 -24 5 -26 -16
-19 -15 5 -20 4 -16 -4 4 -6 0 -11 -8 -11 -9 0 -16 -5 -16 -11 0 -6 -10 -19
-22 -28 l-22 -18 30 -19 c32 -21 53 -44 53 -59 1 -5 -9 1 -20 15 -14 16 -19
19 -15 8 8 -26 -13 -22 -36 7 -11 14 -24 25 -30 25 -7 0 -1 -11 12 -25 26 -27
17 -33 -14 -10 -15 11 -22 12 -27 3 -6 -9 -11 -9 -22 0 -7 7 -17 9 -20 6 -9
-9 35 -54 53 -54 12 -1 11 -3 -3 -11 -9 -6 -14 -15 -11 -21 5 -8 1 -9 -10 -5
-10 4 -22 7 -27 7 -5 0 -9 5 -9 10 0 6 8 10 17 10 15 0 14 2 -2 14 -25 18 -38
10 -32 -20 5 -29 -4 -31 -21 -4 -7 11 -17 20 -24 20 -6 0 1 -13 17 -30 29 -30
44 -90 18 -68 -7 6 -13 16 -13 23 0 14 -38 51 -45 43 -3 -3 4 -13 15 -23 11
-10 20 -24 20 -31 0 -7 20 -27 45 -45 25 -18 45 -34 45 -36 0 -10 -23 0 -40
17 -16 16 -20 17 -20 5 0 -25 -16 -17 -32 14 l-14 29 -13 -30 c-13 -29 -12
-33 7 -49 34 -27 28 -65 -10 -61 -3 1 -9 -6 -12 -14 -4 -11 -2 -15 8 -11 8 3
16 1 18 -5 3 -8 11 -7 27 1 21 12 22 11 11 -8 -8 -17 -8 -21 4 -21 34 0 46 11
35 32 -18 34 -1 32 21 -3 14 -21 19 -26 15 -12 -5 19 -3 21 29 19 26 -2 36 1
39 13 3 12 7 9 17 -11 13 -28 30 -37 30 -17 0 5 6 7 13 3 8 -5 7 -2 -2 9 -16
20 -7 37 11 19 8 -8 16 -5 30 14 11 13 30 24 43 24 25 0 39 15 40 40 0 8 11
17 25 19 14 1 28 8 33 15 5 8 10 7 17 -4 9 -15 12 -11 14 20 1 8 9 14 18 14
10 -1 14 4 11 12 -3 10 0 12 10 9 8 -4 17 1 20 9 7 19 -9 22 -16 4 -4 -8 -8
-4 -12 10 -4 12 -11 22 -16 22 -13 0 -11 -14 4 -29 10 -10 8 -11 -6 -5 -13 5
-17 14 -14 30 2 13 1 24 -3 24 -4 0 -11 8 -14 17 -4 10 -4 14 0 10 11 -10 34
41 28 61 -5 14 -4 15 5 2 5 -8 13 -12 16 -8 3 3 -8 17 -25 32 -17 14 -25 26
-18 26 8 0 20 -6 28 -13 7 -6 1 4 -14 25 -17 22 -23 39 -17 43 6 3 11 22 11
42 0 26 4 34 14 30 10 -4 12 0 9 14 -4 13 0 19 10 19 9 0 18 9 22 19 6 20 56
38 74 27 5 -4 13 -1 17 5 3 6 19 9 35 5 15 -3 31 -1 34 4 3 5 21 7 40 5 19 -3
35 -1 35 4 0 5 14 8 30 6 21 -3 30 0 30 10 0 14 15 19 49 17 8 0 20 7 26 15 7
9 23 17 36 18 13 1 25 7 25 13 3 25 4 25 17 8 13 -17 16 -15 40 27 15 25 27
50 27 56 0 6 7 11 15 11 9 0 14 9 13 23 -1 12 6 51 16 87 11 42 13 66 6 68 -5
2 -10 11 -10 19 0 23 -59 142 -82 165 -11 11 -17 22 -15 25 3 2 -6 21 -19 40
-25 37 -31 59 -14 48 5 -3 15 5 21 18 8 17 17 23 29 20 15 -4 18 -1 13 16 -5
18 -1 21 28 23 19 0 41 1 49 0 28 -3 70 10 70 20 0 6 -12 8 -30 4 -23 -4 -30
-2 -30 10 0 8 -4 12 -10 9 -5 -3 -10 -1 -10 4 0 6 -4 11 -10 11 -14 0 -12 -27
3 -33 6 -3 -2 -6 -19 -6 -25 -1 -33 4 -38 21 -9 36 -7 48 9 48 8 0 15 -4 15
-8 0 -4 10 -9 23 -10 42 -4 55 -8 69 -20 8 -6 18 -9 21 -6 3 4 21 1 39 -5 27
-10 35 -9 45 4 10 15 14 15 41 1 17 -9 34 -20 37 -26 3 -5 15 -10 26 -10 12 0
19 -7 19 -20 0 -26 -27 -80 -40 -80 -6 0 -10 -5 -10 -11 0 -5 4 -7 10 -4 5 3
19 1 30 -5 15 -8 20 -8 20 1 0 6 10 -1 22 -16 17 -22 19 -31 10 -46 -7 -10
-12 -26 -12 -34 0 -8 -9 -15 -20 -15 -11 0 -20 4 -20 10 0 14 -28 1 -34 -17
-9 -21 12 -85 32 -100 14 -12 13 -13 -6 -13 -15 0 -20 -5 -16 -15 4 -10 1 -14
-7 -12 -8 2 -11 2 -6 0 4 -3 7 -25 7 -49 0 -28 4 -44 13 -44 9 0 9 -2 0 -8
-11 -7 -22 -51 -27 -107 0 -11 -5 -25 -9 -32 -4 -6 -3 -14 3 -18 5 -3 10 1 10
9 0 9 5 16 11 16 6 0 8 9 4 23 -7 22 -7 22 9 2 17 -23 21 -39 6 -30 -5 3 -10
-1 -10 -9 0 -8 -7 -19 -16 -24 -11 -6 -13 -11 -5 -16 16 -10 14 -29 -3 -23 -8
3 -20 -1 -26 -9 -9 -10 -9 -14 -1 -14 6 0 11 6 12 13 0 6 5 1 10 -13 7 -17 7
-26 0 -28 -6 -2 -11 -14 -11 -27 0 -12 -7 -26 -16 -29 -13 -5 -14 -1 -9 24 4
17 4 30 1 30 -5 0 -18 -45 -31 -110 -7 -31 -6 -33 9 -21 23 19 26 12 10 -24
-7 -16 -13 -24 -14 -17 0 17 -20 15 -20 -3 0 -8 -7 -15 -15 -15 -17 0 -19 -18
-6 -39 6 -10 1 -22 -15 -40 -20 -22 -26 -24 -34 -11 -5 8 -12 11 -17 7 -4 -5
-2 -12 5 -16 10 -6 9 -15 -4 -39 -8 -18 -19 -30 -23 -28 -4 3 -16 -9 -26 -26
-15 -26 -16 -30 -3 -25 25 9 29 -4 8 -30 -11 -14 -16 -31 -13 -41 6 -15 5 -15
-10 -3 -27 21 -47 7 -44 -32 3 -30 0 -34 -21 -34 -16 -1 -22 4 -17 15 5 13 2
12 -18 -1 -32 -21 -47 -6 -41 42 2 20 1 29 -2 21 -12 -27 -28 -29 -52 -7 -13
12 -31 22 -40 22 -10 0 -16 7 -16 17 2 20 -22 24 -30 6 -3 -10 -8 -8 -16 4 -6
9 -16 23 -23 30 -8 7 -14 18 -15 23 -1 6 -9 18 -17 28 -8 9 -15 24 -15 32 0 8
-5 15 -11 15 -5 0 -7 -6 -3 -12 5 -9 2 -9 -9 1 -15 12 -17 11 -17 -4 0 -14 -3
-15 -15 -5 -8 7 -15 19 -15 28 0 10 -7 6 -20 -11 -24 -30 -26 -51 -5 -43 9 3
15 0 15 -9 0 -8 -8 -15 -17 -15 -14 0 -11 -6 12 -25 17 -13 25 -24 18 -25 -6
0 -15 5 -18 10 -12 20 -21 9 -20 -26 1 -22 -4 -38 -12 -41 -18 -7 -17 -23 2
-23 8 0 15 -6 15 -14 0 -8 6 -17 13 -20 6 -3 0 -3 -15 -1 -29 4 -47 -10 -26
-18 10 -4 10 -6 1 -6 -7 -1 -13 -9 -13 -18 0 -9 -7 -24 -16 -34 -14 -15 -13
-19 10 -44 15 -16 26 -31 26 -36 0 -4 3 -15 6 -24 5 -13 1 -15 -25 -10 -23 4
-31 2 -31 -10 0 -8 -9 -15 -19 -15 -11 0 -27 -3 -36 -6 -13 -5 -14 -8 -3 -15
10 -7 10 -12 1 -27 -9 -15 -9 -22 0 -31 9 -9 8 -14 -2 -21 -12 -7 -12 -11 -2
-24 17 -21 4 -59 -17 -52 -12 4 -11 2 2 -7 11 -7 28 -20 38 -30 24 -23 30 -22
24 6 -3 12 1 7 10 -12 17 -39 12 -51 -13 -28 -28 25 -71 38 -77 24 -3 -8 -10
-5 -21 8 -17 20 -17 20 -10 -4 7 -22 5 -23 -27 -17 l-33 6 31 -14 c34 -16 60
-43 51 -53 -4 -3 -12 -1 -19 4 -8 6 -22 7 -33 2 -11 -4 -14 -8 -7 -8 7 -1 18
-12 24 -26 6 -14 19 -25 29 -25 24 0 30 -12 13 -27 -10 -11 -18 -8 -41 15 -15
15 -25 23 -20 18 4 -6 7 -19 7 -29 0 -10 14 -32 31 -48 36 -34 33 -49 -5 -24
-34 23 -33 11 5 -37 42 -52 31 -59 -14 -9 -21 24 -38 35 -41 28 -3 -7 -16 1
-34 21 -19 21 -32 30 -37 23 -3 -7 4 -20 17 -31 23 -19 23 -19 3 -35 -19 -15
-19 -16 12 -10 24 5 34 2 45 -13 7 -10 21 -21 31 -25 9 -3 17 -14 17 -23 0
-16 -1 -16 -18 -1 -10 10 -22 17 -27 17 -4 0 -14 8 -21 18 -12 16 -13 16 -14
0 0 -9 14 -26 30 -38 17 -12 28 -26 24 -31 -3 -6 -21 1 -40 16 -34 26 -43 20
-23 -16 5 -11 14 -17 19 -14 10 6 50 -29 50 -44 0 -5 -9 -7 -20 -4 -11 3 -20
9 -20 14 0 5 -5 9 -10 9 -6 0 -4 -13 5 -30 9 -16 22 -30 30 -30 8 0 15 -9 15
-20 0 -11 -2 -20 -5 -20 -14 0 -64 68 -65 88 0 23 -15 31 -22 10 -3 -7 -13 -5
-31 7 -15 10 -29 16 -31 14 -9 -10 -12 -99 -5 -111 6 -9 9 -7 9 10 0 51 32 10
36 -48 1 -14 2 -31 3 -37 1 -7 8 -13 16 -13 16 0 40 -38 30 -48 -3 -3 -15 -1
-25 6 -11 7 -20 8 -20 3 0 -5 7 -11 15 -15 8 -3 15 -13 15 -23 0 -15 -2 -15
-15 3 -8 10 -15 14 -15 7 0 -6 -9 -9 -20 -6 -16 4 -19 2 -14 -11 3 -9 1 -16
-5 -16 -6 0 -13 12 -17 27 -11 54 -16 59 -25 28 -5 -19 -5 -31 1 -33 21 -7 9
-22 -14 -16 -16 4 -25 1 -29 -10 -4 -9 -13 -16 -21 -16 -9 0 -12 -7 -9 -20 3
-11 0 -20 -6 -20 -6 0 -11 -7 -11 -16 0 -19 -28 -49 -38 -40 -3 4 -1 11 6 15
8 4 10 15 6 26 -7 17 -8 16 -16 -4 -4 -12 -12 -19 -18 -16 -6 4 -10 -5 -10
-20 0 -31 -23 -30 -28 1 -7 37 -17 32 -19 -8 -3 -51 -9 -57 -29 -32 -14 18
-15 18 -8 -6 9 -33 9 -33 33 -21 11 7 22 7 25 2 8 -13 36 -7 47 10 7 11 11 11
17 1 5 -7 16 -10 26 -6 10 4 21 2 26 -6 5 -9 13 -6 29 11 11 12 21 29 21 36 0
17 17 17 23 1 4 -10 6 -10 6 0 1 6 10 12 21 12 13 0 20 7 20 20 0 11 6 20 14
20 8 0 28 11 44 25 17 14 40 24 54 23 18 -2 22 1 20 16 -2 10 1 15 6 12 5 -3
22 10 36 29 15 19 30 34 34 32 4 -1 27 17 52 41 24 23 47 42 51 42 4 0 12 13
19 30 7 16 16 30 21 30 4 0 19 16 32 36 33 48 102 98 127 91 11 -3 23 -1 26 4
9 15 24 10 24 -7 0 -9 -9 -18 -20 -21 -11 -3 -20 -14 -20 -24 0 -12 5 -16 15
-13 22 9 19 -3 -14 -51 -16 -24 -37 -61 -47 -82 -10 -21 -41 -62 -68 -91 -28
-29 -53 -58 -55 -65 -8 -23 -54 -77 -66 -77 -6 0 -20 -9 -30 -20 -10 -11 -24
-20 -32 -20 -7 0 -13 -5 -13 -10 0 -6 -8 -14 -17 -17 -10 -4 -38 -21 -63 -39
-100 -71 -293 -168 -385 -194 -16 -4 -76 -22 -133 -39 -83 -25 -123 -32 -210
-34 -150 -3 -285 11 -367 38 -38 13 -101 28 -140 34 -319 47 -540 101 -624
152 -46 28 -85 89 -110 171 -12 40 -29 95 -38 123 -15 50 -61 126 -109 180
-39 44 -90 159 -109 245 -9 41 -25 116 -35 165 -11 50 -20 101 -20 115 -1 48
-38 105 -126 195 -49 50 -119 127 -157 170 -84 99 -82 97 -110 137 -12 18 -31
43 -42 54 -11 11 -28 34 -37 50 -10 16 -41 65 -69 109 -29 44 -65 107 -82 140
-16 33 -37 71 -46 85 -10 14 -30 54 -45 90 -15 36 -40 92 -56 125 -15 33 -38
92 -50 130 -12 39 -27 80 -34 92 -11 22 -13 22 -41 7 -45 -24 -83 -35 -156
-43 -36 -5 -81 -15 -100 -23 -19 -9 -52 -23 -74 -33 -61 -26 -176 -85 -215
-112 -123 -81 -243 -178 -293 -235 -37 -43 -221 -266 -270 -328 -12 -15 -54
-110 -62 -140 -3 -8 -14 -41 -25 -72 -21 -59 -37 -184 -44 -348 -23 -535 -27
-587 -48 -670 -16 -65 -22 -122 -24 -245 -1 -88 -5 -216 -9 -285 -3 -70 -2
-163 4 -210 6 -47 12 -120 13 -162 l3 -78 1815 -1 c1809 -1 5077 -1 6213 0
l597 1 0 254 c0 202 -3 257 -14 268 -7 8 -97 55 -199 106 -209 104 -258 144
-330 267 -76 131 -198 228 -557 443 -41 24 -105 68 -143 98 -38 30 -75 54 -82
54 -12 0 -67 41 -193 145 -94 77 -142 110 -207 142 -33 16 -83 44 -110 61 -58
37 -291 134 -496 206 -73 26 -158 86 -265 186 -39 37 -103 88 -142 113 -82 53
-97 74 -86 126 4 20 8 41 8 46 1 6 11 30 22 55 40 85 54 118 54 128 0 6 5 23
12 39 13 31 15 38 17 53 0 6 8 10 16 10 8 0 15 8 16 18 0 9 2 33 5 53 3 25 -1
40 -11 49 -19 16 -19 30 0 30 8 0 15 9 15 21 0 11 4 18 9 15 13 -8 34 50 33
89 -1 19 5 49 13 68 8 19 12 37 8 40 -3 4 2 25 11 48 16 39 14 79 -3 79 -15 0
1 105 18 125 23 26 16 58 -10 50 -18 -6 -19 -3 -16 41 3 27 10 50 16 52 9 3 9
8 -1 19 -10 12 -8 18 9 31 18 14 22 27 22 74 0 40 -5 60 -15 66 -19 11 -26
141 -9 159 7 6 15 10 19 8 3 -3 2 1 -4 7 -14 17 -12 28 5 28 8 0 17 14 21 38
4 20 11 43 17 50 7 8 5 12 -7 12 -9 0 -16 7 -16 15 0 8 6 12 14 9 10 -4 14 6
14 40 1 50 17 90 33 81 6 -4 5 -13 -1 -25 -14 -26 -12 -70 4 -99 l13 -23 6 23
c4 13 7 42 7 65 0 22 4 44 9 50 13 12 31 85 41 166 5 38 11 71 14 76 2 4 7 33
10 65 3 32 8 61 11 66 3 5 7 47 10 93 3 45 11 112 16 148 11 67 12 135 4 253
-3 47 -1 67 7 67 9 0 9 3 0 12 -16 16 -15 81 2 123 12 29 12 34 0 39 -15 6
-20 46 -5 46 5 0 11 -9 14 -20 8 -30 25 -24 25 8 -1 15 9 74 20 132 41 203 56
304 45 307 -6 2 -19 11 -29 19 -10 9 -13 13 -6 9 6 -3 12 -5 13 -3 0 2 3 23 5
48 3 25 9 47 12 50 11 8 11 61 1 54 -5 -3 -9 3 -10 13 0 10 -2 29 -4 43 -2 14
-6 52 -10 85 -4 33 -13 77 -21 98 -18 48 -18 96 0 103 10 4 12 14 7 37 -4 18
-6 50 -4 72 1 22 5 99 8 170 4 72 11 150 16 175 5 25 12 83 14 130 4 92 14
142 42 205 15 34 17 74 18 282 0 180 3 245 13 254 6 7 12 22 12 34 0 12 5 26
10 31 6 6 17 44 26 85 13 60 14 112 9 269 -7 224 -16 271 -66 358 -54 92 -284
328 -340 347 -50 18 -126 74 -224 166 -50 48 -94 77 -156 106 -47 22 -140 69
-205 105 -65 35 -138 72 -160 80 -55 22 -124 68 -222 147 -58 47 -83 55 -273
89 -110 20 -164 50 -213 120 -16 23 -34 42 -39 42 -15 0 -137 127 -137 143 0
28 -49 50 -94 42 -46 -7 -79 -7 -116 0 -14 3 -52 7 -85 10 -152 14 -189 23
-324 86 -59 28 -87 36 -119 38 -7 1 -10 6 -6 12 4 7 -1 9 -12 7 -11 -2 -18
-11 -16 -19 3 -10 1 -11 -8 -3 -9 9 -19 8 -41 -3 -22 -11 -41 -13 -67 -7 -60
14 -110 11 -104 -5 4 -11 1 -11 -16 -2 -24 13 -45 15 -38 3 3 -5 -8 -6 -25 -4
-24 3 -28 1 -23 -12 4 -10 0 -18 -10 -22 -22 -9 -20 -33 5 -61 l22 -22 -31 8
c-17 5 -33 7 -35 4 -9 -8 -47 22 -46 37 0 9 2 11 5 3 6 -13 34 -6 34 9 0 5 -4
6 -10 3 -5 -3 -10 0 -10 7 0 15 -38 16 -79 3 -21 -6 -21 -6 -1 -28 27 -28 28
-57 1 -33 -12 11 -21 13 -25 7 -4 -6 -15 -7 -29 -2 -12 5 -40 7 -60 5 -28 -3
-37 -1 -31 7 5 8 3 9 -5 5 -7 -5 -21 0 -31 9 -10 9 -24 14 -29 10 -6 -3 -11
-1 -11 4 0 6 9 16 20 23 12 8 20 24 20 41 0 24 -3 27 -25 21 -26 -6 -33 4 -14
23 6 6 7 13 2 16 -11 6 -144 16 -163 12z m743 -136 c39 -21 47 -44 17 -46 -11
-1 -22 6 -25 18 -4 10 -11 19 -16 19 -5 0 -9 5 -9 10 0 13 6 13 33 -1z m-43
-9 c0 -5 -5 -10 -11 -10 -5 0 -7 5 -4 10 3 6 8 10 11 10 2 0 4 -4 4 -10z
m-710 -8 c-5 -2 -8 -7 -5 -12 3 -4 22 -2 44 6 31 11 50 11 95 2 31 -7 56 -15
56 -19 0 -13 -19 -20 -50 -21 -17 -1 -30 -4 -30 -9 0 -9 -20 -6 -39 5 -11 7
-12 6 -6 -5 7 -11 6 -12 -6 -3 -8 6 -22 10 -32 9 -9 -2 -15 0 -12 5 10 17 -20
16 -39 -1 -10 -10 -23 -16 -28 -13 -4 3 -8 1 -8 -4 0 -8 -63 3 -78 14 -8 5 40
44 48 39 5 -3 11 -1 14 4 3 4 24 8 46 7 23 0 36 -2 30 -4z m880 -32 c-19 -13
-30 -13 -30 0 0 6 10 10 23 10 18 0 19 -2 7 -10z m-880 -30 c0 -5 -4 -10 -9
-10 -6 0 -13 5 -16 10 -3 6 1 10 9 10 9 0 16 -4 16 -10z m-255 -40 c3 -5 1
-10 -4 -10 -6 0 -11 5 -11 10 0 6 2 10 4 10 3 0 8 -4 11 -10z m1089 -68 c3 -5
-1 -9 -9 -9 -8 0 -15 4 -15 9 0 4 4 8 9 8 6 0 12 -4 15 -8z m176 -6 c0 -3 -4
-8 -10 -11 -5 -3 -10 -1 -10 4 0 6 5 11 10 11 6 0 10 -2 10 -4z m-88 -26 c54
-28 74 -60 38 -60 -11 0 -20 4 -20 9 0 5 -8 7 -18 4 -10 -2 -25 3 -33 13 -12
16 -12 17 1 10 8 -4 2 4 -15 19 l-30 26 27 -5 c14 -2 37 -10 50 -16z m271 -4
c10 -8 27 -12 38 -9 16 5 78 -13 159 -44 8 -3 24 -8 35 -10 63 -11 160 -80
145 -103 -6 -9 -27 -6 -91 13 -46 14 -113 28 -148 31 -36 3 -67 9 -70 14 -3 4
-24 16 -45 27 -57 29 -78 53 -65 76 11 22 18 23 42 5z m-1383 -16 c0 -5 -4
-10 -10 -10 -5 0 -10 5 -10 10 0 6 5 10 10 10 6 0 10 -4 10 -10z m-22 -343 c6
0 12 -4 12 -7 0 -8 58 -24 73 -21 5 1 6 -3 3 -8 -4 -5 0 -12 6 -14 18 -8 -88
0 -112 8 -11 3 -20 11 -20 16 0 6 -4 8 -9 4 -12 -7 -24 12 -16 25 4 6 16 8 28
4 12 -4 28 -7 35 -7z m1362 3 c0 -5 -4 -10 -9 -10 -6 0 -13 5 -16 10 -3 6 1
10 9 10 9 0 16 -4 16 -10z m35 -10 c3 -5 1 -10 -4 -10 -6 0 -11 5 -11 10 0 6
2 10 4 10 3 0 8 -4 11 -10z m-1235 -60 c0 -5 -2 -10 -4 -10 -3 0 -8 5 -11 10
-3 6 -1 10 4 10 6 0 11 -4 11 -10z m1310 -16 c0 -20 -4 -25 -22 -22 -12 2 -23
9 -26 17 -3 10 2 11 18 6 19 -6 22 -4 17 9 -4 9 -2 16 3 16 6 0 10 -12 10 -26z
m231 -132 c26 -23 29 -30 16 -35 -18 -7 -98 32 -105 51 -8 25 57 13 89 -16z
m-3049 -120 c23 -21 25 -28 15 -41 -9 -12 -9 -13 1 -7 18 11 15 -19 -3 -38 -9
-9 -23 -12 -33 -9 -23 9 -62 49 -55 57 4 3 1 6 -5 6 -6 0 -9 7 -6 15 4 8 1 22
-5 29 -9 11 -9 15 1 19 23 9 62 -5 90 -31z m-102 -328 c0 -19 -16 -18 -24 2
-11 27 -7 37 9 24 8 -7 15 -19 15 -26z m-49 -267 c-5 -5 -18 -7 -28 -3 -14 6
-15 9 -4 16 19 11 46 1 32 -13z m2486 -103 c-3 -3 -12 -4 -19 -1 -8 3 -5 6 6
6 11 1 17 -2 13 -5z m-2532 -34 c0 -8 10 -24 23 -35 21 -20 31 -78 14 -88 -4
-3 -25 3 -46 14 -48 23 -60 24 -96 3 -15 -10 -35 -14 -44 -11 -19 7 -22 29 -3
26 20 -4 67 12 67 23 0 5 -4 6 -10 3 -5 -3 -10 -1 -10 5 0 7 9 14 20 17 22 6
27 29 8 36 -22 9 14 27 47 25 19 -2 30 -9 30 -18z m2003 8 c-3 -7 -11 -13 -18
-13 -7 0 -15 6 -17 13 -3 7 4 12 17 12 13 0 20 -5 18 -12z m152 2 c0 -5 -7
-10 -15 -10 -8 0 -15 5 -15 10 0 6 7 10 15 10 8 0 15 -4 15 -10z m145 0 c-3
-5 -15 -10 -26 -10 -10 0 -19 5 -19 10 0 6 12 10 26 10 14 0 23 -4 19 -10z
m605 -40 c0 -5 -4 -10 -10 -10 -5 0 -10 5 -10 10 0 6 5 10 10 10 6 0 10 -4 10
-10z m680 -220 c0 -5 -2 -10 -4 -10 -3 0 -8 5 -11 10 -3 6 -1 10 4 10 6 0 11
-4 11 -10z m-30 -14 c0 -3 -4 -8 -10 -11 -5 -3 -10 -1 -10 4 0 6 5 11 10 11 6
0 10 -2 10 -4z m505 -63 c11 -38 -13 -26 -30 13 -8 20 -15 39 -15 42 0 14 38
-34 45 -55z m-3949 -128 c18 -15 18 -16 -12 -43 -17 -15 -41 -42 -54 -61 -28
-40 -77 -62 -147 -66 -37 -3 -53 0 -57 11 -3 8 0 14 6 14 6 0 8 3 5 7 -11 10
24 43 45 43 10 0 18 4 18 8 0 4 26 21 58 37 31 17 68 38 81 48 29 21 32 21 57
2z m3784 -55 c0 -5 -4 -10 -10 -10 -5 0 -10 5 -10 10 0 6 5 10 10 10 6 0 10
-4 10 -10z m-38 -90 c4 0 8 -6 8 -12 0 -7 -11 -1 -24 12 -13 14 -21 29 -18 34
3 6 10 0 15 -12 6 -12 14 -22 19 -22z m-3732 5 c7 -8 10 -16 6 -16 -40 -8 -86
-32 -86 -45 0 -12 -4 -12 -21 -4 -17 10 -18 14 -7 28 11 13 11 15 -2 7 -13 -8
-13 -6 -1 8 7 9 17 14 22 11 5 -3 19 2 31 10 28 20 42 20 58 1z m4150 -81 c0
-8 -5 -12 -10 -9 -6 4 -8 11 -5 16 9 14 15 11 15 -7z m-380 -44 c0 -5 -2 -10
-4 -10 -3 0 -8 5 -11 10 -3 6 -1 10 4 10 6 0 11 -4 11 -10z m355 -20 c3 -5 1
-10 -4 -10 -6 0 -11 5 -11 10 0 6 2 10 4 10 3 0 8 -4 11 -10z m157 -40 c-2
-16 -6 -30 -8 -30 -2 0 -4 14 -4 30 0 17 4 30 8 30 5 0 7 -13 4 -30z m-182
-60 c0 -5 -4 -10 -10 -10 -5 0 -10 5 -10 10 0 6 5 10 10 10 6 0 10 -4 10 -10z
m430 -87 c0 -44 -5 -41 -14 10 -5 27 -4 37 3 32 6 -3 11 -22 11 -42z m-595
-13 c3 -5 2 -10 -4 -10 -5 0 -13 5 -16 10 -3 6 -2 10 4 10 5 0 13 -4 16 -10z
m145 6 c0 -3 -4 -8 -10 -11 -5 -3 -10 -1 -10 4 0 6 5 11 10 11 6 0 10 -2 10
-4z m184 -55 c5 -28 4 -31 -8 -22 -15 12 -27 57 -18 66 9 9 19 -8 26 -44z
m353 -3 c-3 -8 -6 -5 -6 6 -1 11 2 17 5 13 3 -3 4 -12 1 -19z m-660 -4 c-3 -3
-12 -4 -19 -1 -8 3 -5 6 6 6 11 1 17 -2 13 -5z m163 -34 c0 -5 -4 -10 -10 -10
-5 0 -10 5 -10 10 0 6 5 10 10 10 6 0 10 -4 10 -10z m160 -10 c0 -5 -5 -10
-12 -10 -9 0 -9 -3 0 -12 17 -17 15 -49 -2 -42 -9 3 -13 16 -11 32 2 15 4 30
4 35 1 11 21 8 21 -3z m330 -91 c0 -27 -11 -50 -21 -43 -5 3 -9 -2 -9 -11 0
-10 5 -13 11 -9 14 8 6 -31 -18 -85 -20 -47 -27 -26 -18 55 6 55 9 64 27 64
14 0 18 5 14 16 -3 9 -6 18 -6 20 0 3 -5 2 -12 -2 -8 -5 -9 -2 -5 10 4 10 7
23 7 29 1 19 30 -25 30 -44z m-520 -9 c0 -5 -5 -10 -11 -10 -5 0 -7 5 -4 10 3
6 8 10 11 10 2 0 4 -4 4 -10z m-35 -20 c-3 -5 -13 -10 -21 -10 -8 0 -12 5 -9
10 3 6 13 10 21 10 8 0 12 -4 9 -10z m-85 -32 c0 -6 -7 -7 -16 -4 -9 3 -18 6
-20 6 -3 0 -3 4 1 10 7 11 35 2 35 -12z m562 -88 c-6 -37 -11 -50 -16 -38 -4
9 -2 43 5 75 15 69 23 42 11 -37z m95 26 c-1 -19 -6 -32 -11 -28 -5 3 -7 -2
-3 -11 4 -10 1 -17 -6 -17 -7 0 -3 -7 7 -15 20 -15 20 -15 0 -30 -25 -19 -31
-19 -44 5 -8 15 -8 24 2 34 8 7 22 32 32 55 11 22 21 41 23 41 1 0 2 -15 0
-34z m-632 4 c3 -5 -1 -10 -10 -10 -9 0 -13 5 -10 10 3 6 8 10 10 10 2 0 7 -4
10 -10z m415 -10 c0 -5 -2 -10 -4 -10 -3 0 -8 5 -11 10 -3 6 -1 10 4 10 6 0
11 -4 11 -10z m-215 -20 c3 -5 1 -10 -4 -10 -6 0 -11 5 -11 10 0 6 2 10 4 10
3 0 8 -4 11 -10z m-188 -36 c-3 -3 -12 -4 -19 -1 -8 3 -5 6 6 6 11 1 17 -2 13
-5z m52 -67 l30 -25 -25 -5 c-18 -3 -24 -1 -20 9 3 7 -13 24 -40 41 -24 15
-44 31 -44 34 0 10 65 -25 99 -54z m348 33 c-5 -31 -17 -37 -15 -7 1 15 6 27
10 27 4 0 7 -9 5 -20z m148 10 c3 -5 1 -10 -4 -10 -6 0 -11 5 -11 10 0 6 2 10
4 10 3 0 8 -4 11 -10z m106 -19 c-14 -9 -7 -31 10 -31 6 0 7 5 4 10 -3 6 -1
10 5 10 7 0 9 -6 6 -12 -3 -7 -9 -21 -12 -30 -4 -10 -9 -18 -13 -18 -12 1 -66
50 -54 50 6 0 15 -4 18 -10 3 -5 11 -10 16 -10 6 0 7 5 4 10 -9 15 2 40 17 40
10 0 10 -2 -1 -9z m-411 -22 c0 -5 -4 -9 -10 -9 -5 0 -10 7 -10 16 0 8 5 12
10 9 6 -3 10 -10 10 -16z m331 -6 c21 -16 39 -36 39 -47 0 -16 -5 -18 -35 -13
-20 3 -35 2 -35 -4 0 -6 -4 -7 -10 -4 -10 6 -14 95 -4 95 3 0 23 -12 45 -27z
m-391 7 c0 -5 -7 -7 -15 -4 -8 4 -15 8 -15 10 0 2 7 4 15 4 8 0 15 -4 15 -10z
m510 -56 c0 -8 -4 -12 -10 -9 -5 3 -10 10 -10 16 0 5 5 9 10 9 6 0 10 -7 10
-16z m-563 0 c-3 -3 -12 -4 -19 -1 -8 3 -5 6 6 6 11 1 17 -2 13 -5z m163 -48
c0 -26 -6 -18 -14 19 -5 22 -4 26 4 15 5 -8 10 -24 10 -34z m384 17 c19 -20
22 -30 14 -40 -8 -10 -6 -13 5 -13 11 0 14 -5 10 -17 -9 -24 -33 -47 -40 -39
-3 3 -12 1 -20 -5 -10 -9 -13 -8 -13 5 0 9 9 20 20 24 14 5 17 11 10 22 -7 10
-10 11 -10 3 0 -7 -7 -13 -15 -13 -11 0 -12 5 -5 26 13 34 13 34 -11 34 -16 0
-19 -4 -14 -20 5 -15 3 -18 -9 -14 -19 7 -21 43 -3 45 6 1 22 1 35 2 24 0 30
12 10 20 -10 4 -10 6 -1 6 7 1 23 -11 37 -26z m-584 6 c0 -5 -6 -9 -14 -9 -8
0 -20 -2 -28 -5 -7 -3 -22 1 -33 9 -18 13 -16 14 28 14 26 0 47 -4 47 -9z
m468 -46 c2 -18 -1 -33 -5 -33 -5 0 -13 15 -18 33 -9 28 -8 33 5 33 11 0 17
-11 18 -33z m-483 17 c3 -5 1 -10 -4 -10 -6 0 -11 5 -11 10 0 6 2 10 4 10 3 0
8 -4 11 -10z m311 -37 c-10 -10 -19 5 -10 18 6 11 8 11 12 0 2 -7 1 -15 -2
-18z m-410 8 c7 -1 14 -8 18 -16 5 -13 2 -14 -15 -4 -12 6 -29 9 -40 6 -10 -3
-23 1 -29 8 -10 12 -5 13 66 6z m124 -1 c0 -5 -9 -10 -20 -10 -11 0 -20 5 -20
10 0 6 9 10 20 10 11 0 20 -4 20 -10z m-60 -16 c0 -8 -4 -12 -10 -9 -5 3 -10
10 -10 16 0 5 5 9 10 9 6 0 10 -7 10 -16z m561 3 c-1 -12 -15 -9 -19 4 -3 6 1
10 8 8 6 -3 11 -8 11 -12z m-111 -13 c0 -8 -4 -12 -10 -9 -5 3 -10 10 -10 16
0 5 5 9 10 9 6 0 10 -7 10 -16z m-210 -14 c0 -5 -2 -10 -4 -10 -3 0 -8 5 -11
10 -3 6 -1 10 4 10 6 0 11 -4 11 -10z m30 6 c0 -3 -4 -8 -10 -11 -5 -3 -10 -1
-10 4 0 6 5 11 10 11 6 0 10 -2 10 -4z m230 -25 c0 -4 -7 -8 -15 -8 -8 0 -15
6 -15 13 0 8 6 11 15 8 8 -4 15 -9 15 -13z m-83 -23 c-3 -8 -6 -5 -6 6 -1 11
2 17 5 13 3 -3 4 -12 1 -19z m38 2 c3 -5 1 -10 -4 -10 -6 0 -11 5 -11 10 0 6
2 10 4 10 3 0 8 -4 11 -10z m95 -10 c0 -5 -7 -10 -16 -10 -8 0 -12 5 -9 10 3
6 10 10 16 10 5 0 9 -4 9 -10z m104 -9 c31 -17 46 -41 27 -41 -6 0 -11 6 -12
13 0 6 -4 3 -8 -8 -5 -11 -4 -25 2 -33 5 -7 8 -14 6 -15 -11 -9 -79 -37 -88
-37 -12 0 -15 13 -4 23 13 14 12 57 -3 57 -17 0 -17 2 -2 35 13 29 39 31 82 6z
m-354 -26 c0 -5 -5 -3 -10 5 -5 8 -10 20 -10 25 0 6 5 3 10 -5 5 -8 10 -19 10
-25z m200 31 c0 -11 -19 -15 -25 -6 -3 5 1 10 9 10 9 0 16 -2 16 -4z m-47 -31
c-10 -7 -20 -12 -21 -10 -7 7 23 33 31 28 5 -3 0 -11 -10 -18z m-189 -6 c-6
-11 -24 -2 -24 11 0 5 7 7 15 4 8 -4 12 -10 9 -15z m267 -10 c-9 -26 -48 -65
-56 -57 -3 2 4 14 16 26 11 12 17 26 14 32 -3 5 3 13 12 19 23 12 26 9 14 -20z
m-167 -1 c-3 -4 -9 -8 -15 -8 -5 0 -9 4 -9 8 0 5 7 9 15 9 8 0 12 -4 9 -9z
m-54 -8 c0 -5 -4 -10 -10 -10 -5 0 -10 5 -10 10 0 6 5 10 10 10 6 0 10 -4 10
-10z m160 -10 c-6 -11 -13 -20 -16 -20 -3 0 -2 5 1 10 3 6 1 10 -5 10 -6 0 -8
5 -5 10 3 6 13 10 21 10 12 0 12 -4 4 -20z m285 1 c-3 -6 -11 -11 -17 -11 -6
0 -6 6 2 15 14 17 26 13 15 -4z m-206 -33 c-18 -13 -19 -17 -5 -12 13 5 17 3
14 -7 -3 -8 -21 -15 -43 -17 l-39 -3 39 34 c22 20 44 33 49 30 5 -3 -2 -14
-15 -25z m-157 3 c17 -11 35 -18 40 -15 4 3 8 0 8 -6 0 -15 -51 -1 -75 21 -25
24 -14 24 27 0z m397 -177 c2 -2 1 -10 -3 -19 -5 -14 -8 -13 -26 2 -27 23 -25
36 3 27 12 -3 24 -8 26 -10z m-28 -31 c26 -16 31 -16 39 -3 8 12 10 11 10 -5
0 -14 -7 -21 -20 -22 -11 -1 -20 3 -20 8 0 6 -7 6 -19 -1 -28 -14 -36 -12 -21
5 9 10 9 15 1 15 -6 0 -11 5 -11 10 0 14 8 13 41 -7z m79 -53 c0 -5 -4 -10
-10 -10 -5 0 -10 5 -10 10 0 6 5 10 10 10 6 0 10 -4 10 -10z m-430 -167 c-1
-25 -17 -34 -43 -22 -37 17 -34 29 8 29 19 0 35 -3 35 -7z m557 -25 c-3 -7 -5
-2 -5 12 0 14 2 19 5 13 2 -7 2 -19 0 -25z m-1372 2 c3 -5 -1 -10 -9 -10 -9 0
-16 5 -16 10 0 6 4 10 9 10 6 0 13 -4 16 -10z m458 -7 c10 -10 26 -18 35 -18
9 0 18 -9 20 -20 l4 -20 -16 20 c-8 11 -16 14 -16 8 0 -7 -4 -13 -8 -13 -12 0
-52 39 -52 50 0 15 11 12 33 -7z m-229 -32 c-6 -6 -54 21 -54 30 0 5 13 0 29
-9 16 -9 28 -19 25 -21z m105 -6 c17 -5 21 -4 16 5 -5 8 -1 11 11 8 11 -2 19
-10 19 -18 0 -30 -123 6 -133 39 -4 10 5 9 29 -6 19 -11 45 -24 58 -28z m-484
4 c20 -12 34 -24 31 -26 -6 -6 -49 17 -58 31 -5 7 -8 4 -8 -6 0 -10 -4 -18
-10 -18 -5 0 -10 3 -10 8 0 4 -21 6 -47 3 -27 -2 -45 0 -42 4 4 3 21 7 38 7
17 1 31 5 31 10 0 15 38 8 75 -13z m805 -15 c0 -8 -4 -12 -10 -9 -5 3 -10 10
-10 16 0 5 5 9 10 9 6 0 10 -7 10 -16z m94 0 c25 -10 19 -26 -6 -19 -31 10
-47 25 -26 25 9 0 23 -3 32 -6z m-621 -24 c3 -11 12 -20 20 -20 8 0 18 -7 21
-16 5 -12 1 -14 -17 -8 -12 3 -29 12 -37 19 -8 6 -24 16 -35 20 -19 7 -19 8 5
15 37 12 37 12 43 -10z m76 4 c2 -2 2 -6 -1 -9 -8 -8 -68 7 -68 17 0 9 58 2
69 -8z m71 6 c0 -5 -4 -10 -10 -10 -5 0 -10 5 -10 10 0 6 5 10 10 10 6 0 10
-4 10 -10z m280 0 c0 -5 -7 -10 -15 -10 -8 0 -15 5 -15 10 0 6 7 10 15 10 8 0
15 -4 15 -10z m-1073 -25 c-14 -29 -27 -33 -27 -7 0 22 8 32 26 32 9 0 10 -6
1 -25z m989 -6 c10 -17 -24 -9 -47 11 l-24 20 33 -11 c17 -6 35 -15 38 -20z
m-136 11 c0 -13 -11 -13 -30 0 -12 8 -11 10 8 10 12 0 22 -4 22 -10z m30 0 c0
-5 -4 -10 -10 -10 -5 0 -10 5 -10 10 0 6 5 10 10 10 6 0 10 -4 10 -10z m244 1
c4 -5 -3 -7 -14 -4 -23 6 -26 13 -6 13 8 0 17 -4 20 -9z m-1178 -37 c-25 -18
-31 -12 -16 16 9 17 15 19 23 10 9 -9 7 -15 -7 -26z m74 7 c0 -5 -7 -11 -14
-14 -10 -4 -13 -1 -9 9 6 15 23 19 23 5z m805 -21 c-3 -5 -10 -10 -16 -10 -5
0 -9 5 -9 10 0 6 7 10 16 10 8 0 12 -4 9 -10z m55 0 c0 -5 -7 -10 -15 -10 -8
0 -15 5 -15 10 0 6 7 10 15 10 8 0 15 -4 15 -10z m34 4 c20 -8 21 -24 2 -24
-8 0 -16 7 -20 15 -6 17 -4 18 18 9z m463 -10 c-3 -3 -12 -4 -19 -1 -8 3 -5 6
6 6 11 1 17 -2 13 -5z m33 -14 c0 -5 -4 -10 -10 -10 -5 0 -10 5 -10 10 0 6 5
10 10 10 6 0 10 -4 10 -10z m-525 -10 c-3 -5 -13 -10 -21 -10 -8 0 -14 5 -14
10 0 6 9 10 21 10 11 0 17 -4 14 -10z m-675 -10 c0 -5 -5 -10 -11 -10 -5 0 -7
5 -4 10 3 6 8 10 11 10 2 0 4 -4 4 -10z m1295 -11 c5 -6 3 -9 -7 -9 -24 0 -48
11 -48 22 0 10 39 1 55 -13z m-935 1 c0 -5 -2 -10 -4 -10 -3 0 -8 5 -11 10 -3
6 -1 10 4 10 6 0 11 -4 11 -10z m1391 -7 c13 -16 12 -17 -3 -4 -10 7 -18 15
-18 17 0 8 8 3 21 -13z m-411 -3 c0 -5 -4 -10 -10 -10 -5 0 -10 5 -10 10 0 6
5 10 10 10 6 0 10 -4 10 -10z m-440 -10 c0 -5 -5 -10 -11 -10 -5 0 -7 5 -4 10
3 6 8 10 11 10 2 0 4 -4 4 -10z m80 -6 c0 -2 -9 -4 -20 -4 -11 0 -20 4 -20 9
0 5 9 7 20 4 11 -3 20 -7 20 -9z m-1065 -4 c-3 -5 -11 -10 -16 -10 -6 0 -7 5
-4 10 3 6 11 10 16 10 6 0 7 -4 4 -10z m521 -27 c-6 -6 -36 9 -36 18 0 5 9 4
20 -3 10 -7 18 -14 16 -15z m183 13 c10 -12 8 -13 -9 -9 -25 7 -37 23 -17 23
8 0 20 -6 26 -14z m431 4 c12 -8 9 -10 -12 -10 -16 0 -28 5 -28 10 0 13 20 13
40 0z m318 -2 c-3 -7 -20 -14 -39 -16 -50 -5 -19 19 34 27 5 0 7 -5 5 -11z
m-1008 -8 c0 -13 -11 -13 -30 0 -12 8 -11 10 8 10 12 0 22 -4 22 -10z m210 0
c0 -5 -4 -10 -10 -10 -5 0 -10 5 -10 10 0 6 5 10 10 10 6 0 10 -4 10 -10z
m675 0 c3 -5 1 -10 -4 -10 -6 0 -11 5 -11 10 0 6 2 10 4 10 3 0 8 -4 11 -10z
m135 -27 c0 -36 -13 -63 -29 -63 -10 0 -17 9 -18 21 -1 14 3 19 13 15 8 -3 14
-1 14 4 0 6 -13 10 -30 10 -40 0 -38 18 3 23 17 2 35 5 40 5 4 1 7 -6 7 -15z
m-793 -49 c-3 -3 -12 -4 -19 -1 -8 3 -5 6 6 6 11 1 17 -2 13 -5z m81 -2 c8 -6
2 -9 -17 -9 -17 0 -28 4 -25 9 7 10 25 10 42 0z m952 -2 c0 -5 -5 -10 -11 -10
-5 0 -7 5 -4 10 3 6 8 10 11 10 2 0 4 -4 4 -10z m121 -43 c-8 -8 -11 -7 -11 4
0 9 3 19 7 23 4 4 9 2 11 -4 3 -7 -1 -17 -7 -23z m-371 14 c0 -12 -20 -25 -27
-18 -7 7 6 27 18 27 5 0 9 -4 9 -9z m69 -31 c-8 -4 -29 -10 -47 -13 l-32 -7
15 30 c15 28 15 28 46 13 23 -11 28 -18 18 -23z m-1221 -5 c-6 -6 -58 8 -58
16 0 4 14 3 31 -3 16 -6 29 -12 27 -13z m289 19 c-3 -3 -12 -4 -19 -1 -8 3 -5
6 6 6 11 1 17 -2 13 -5z m49 -12 c-10 -2 -22 0 -28 6 -6 6 0 7 19 4 21 -5 23
-7 9 -10z m1163 -29 c-7 -10 -15 -20 -16 -22 -2 -2 -3 5 -3 17 0 14 6 22 16
22 14 0 15 -3 3 -17z m-295 -14 c3 -2 1 -11 -4 -19 -8 -13 -10 -13 -10 1 0 12
-8 14 -31 11 -21 -3 -30 -1 -25 6 6 10 61 11 70 1z m286 -59 c0 -11 -2 -20 -4
-20 -2 0 -6 9 -9 20 -3 11 -1 20 4 20 5 0 9 -9 9 -20z m-1420 -70 c0 -5 -4
-10 -10 -10 -5 0 -10 5 -10 10 0 6 5 10 10 10 6 0 10 -4 10 -10z m1112 -5 c0
-5 -5 -11 -11 -13 -6 -2 -11 4 -11 13 0 9 5 15 11 13 6 -2 11 -8 11 -13z
m-1212 -4 c0 -12 -20 -25 -27 -18 -7 7 6 27 18 27 5 0 9 -4 9 -9z m887 -17
c-3 -3 -12 -4 -19 -1 -8 3 -5 6 6 6 11 1 17 -2 13 -5z m40 -10 c-3 -3 -12 -4
-19 -1 -8 3 -5 6 6 6 11 1 17 -2 13 -5z m-92 -14 c3 -5 -1 -10 -9 -10 -8 0
-18 5 -21 10 -3 6 1 10 9 10 8 0 18 -4 21 -10z m645 -11 c0 -6 -4 -7 -10 -4
-5 3 -10 11 -10 16 0 6 5 7 10 4 6 -3 10 -11 10 -16z m-845 -69 c3 -6 -4 -10
-17 -10 -18 0 -20 2 -8 10 19 12 18 12 25 0z m105 -20 c8 -5 12 -11 10 -14 -3
-2 -14 2 -24 10 -22 15 -10 19 14 4z m178 3 c-10 -2 -26 -2 -35 0 -10 3 -2 5
17 5 19 0 27 -2 18 -5z m-108 -39 c0 -2 -9 0 -20 6 -11 6 -20 13 -20 16 0 2 9
0 20 -6 11 -6 20 -13 20 -16z m-80 -42 c0 -15 -2 -15 -10 -2 -13 20 -13 33 0
25 6 -3 10 -14 10 -23z m-106 -7 c-4 -8 -10 -15 -16 -15 -5 0 -16 7 -24 15
-14 13 -12 15 15 15 23 0 29 -4 25 -15z m176 -54 c-1 -13 -29 45 -29 59 0 8 6
0 14 -19 8 -18 15 -36 15 -40z m-35 19 c3 -5 1 -10 -4 -10 -6 0 -11 5 -11 10
0 6 2 10 4 10 3 0 8 -4 11 -10z m75 0 c0 -5 -4 -10 -9 -10 -6 0 -13 5 -16 10
-3 6 1 10 9 10 9 0 16 -4 16 -10z m-150 -41 c0 -6 -4 -7 -10 -4 -5 3 -10 11
-10 16 0 6 5 7 10 4 6 -3 10 -11 10 -16z m118 -15 c4 -28 -24 -52 -41 -35 -9
9 -9 14 3 21 10 7 11 10 3 10 -7 0 -13 7 -13 16 0 24 44 14 48 -12z m-88 7 c0
-5 -6 -12 -12 -15 -7 -3 2 -3 20 0 42 7 41 -3 -3 -22 -24 -9 -33 -19 -29 -29
4 -8 1 -15 -5 -15 -6 0 -11 7 -11 16 0 11 -6 14 -21 9 -15 -5 -20 -3 -17 6 3
8 14 15 26 17 11 2 24 12 27 23 6 19 25 27 25 10z m140 -41 c8 -5 11 -13 6
-17 -5 -4 -11 -2 -13 5 -3 6 -9 10 -14 6 -5 -3 -9 0 -9 5 0 13 10 14 30 1z
m-260 -100 c0 -5 -7 -10 -15 -10 -8 0 -15 5 -15 10 0 6 7 10 15 10 8 0 15 -4
15 -10z m-936 -51 c-24 -27 -30 -15 -9 18 12 17 20 23 23 15 2 -7 -4 -22 -14
-33z m876 31 c0 -5 -4 -10 -10 -10 -5 0 -10 5 -10 10 0 6 5 10 10 10 6 0 10
-4 10 -10z m-794 -215 c1 -14 -2 -22 -7 -19 -11 6 -12 44 -1 44 4 0 8 -11 8
-25z m-636 -18 c0 -5 -4 -5 -10 -2 -5 3 -10 14 -10 23 0 15 2 15 10 2 5 -8 10
-19 10 -23z m570 17 c0 -9 -7 -14 -17 -12 -24 4 -27 23 -3 25 12 1 20 -4 20
-13z m-100 2 c0 -3 -4 -8 -10 -11 -5 -3 -10 -1 -10 4 0 6 5 11 10 11 6 0 10
-2 10 -4z m1873 -26 c-3 -12 -8 -19 -11 -16 -5 6 5 36 12 36 2 0 2 -9 -1 -20z
m-1678 -50 c3 -5 1 -10 -4 -10 -6 0 -11 5 -11 10 0 6 2 10 4 10 3 0 8 -4 11
-10z m1669 -5 c-4 -8 -8 -15 -10 -15 -2 0 -4 7 -4 15 0 8 4 15 10 15 5 0 7 -7
4 -15z m-1808 -50 c-3 -9 -11 -13 -16 -10 -8 5 -7 11 1 21 14 18 24 11 15 -11z
m1799 15 c3 -5 -3 -10 -14 -10 -12 0 -21 5 -21 10 0 6 6 10 14 10 8 0 18 -4
21 -10z m-1920 -20 c-3 -5 -11 -10 -16 -10 -6 0 -7 5 -4 10 3 6 11 10 16 10 6
0 7 -4 4 -10z m1899 -6 c11 -4 16 -19 15 -48 0 -31 -2 -36 -8 -21 -5 11 -6 24
-4 28 3 5 -3 17 -13 28 -18 20 -16 23 10 13z m-1890 -50 c4 -10 1 -14 -6 -12
-15 5 -23 28 -10 28 5 0 13 -7 16 -16z m1876 -98 c0 -15 -18 -31 -26 -23 -7 7
7 37 17 37 5 0 9 -6 9 -14z m-1900 0 c0 -11 -19 -15 -25 -6 -3 5 1 10 9 10 9
0 16 -2 16 -4z m1743 -69 c8 -22 -6 -35 -28 -26 -19 7 -19 8 -1 8 15 1 16 4 6
16 -10 12 -10 15 3 15 8 0 17 -6 20 -13z m-1710 -4 c10 -16 -38 -40 -63 -32
-23 6 -22 7 9 8 33 1 34 2 15 16 -18 14 -18 14 8 15 15 0 29 -3 31 -7z m1840
-39 c-3 -9 0 -20 8 -24 7 -5 10 -12 7 -16 -12 -11 -37 22 -28 36 5 8 6 18 3
24 -3 5 -1 6 5 2 6 -4 8 -14 5 -22z m-1783 6 c0 -13 -11 -13 -30 0 -12 8 -11
10 8 10 12 0 22 -4 22 -10z m-60 -20 c0 -5 8 -9 18 -8 36 3 52 -2 52 -17 0
-11 -8 -13 -32 -8 -41 8 -79 43 -48 43 6 0 10 -4 10 -10z m1890 0 c0 -5 -4
-10 -10 -10 -5 0 -10 5 -10 10 0 6 5 10 10 10 6 0 10 -4 10 -10z m-1935 -20
c-3 -5 -16 -10 -28 -10 -18 0 -19 2 -7 10 20 13 43 13 35 0z m1925 -15 c-6 -8
-8 -20 -4 -27 5 -10 4 -10 -5 -2 -13 12 -5 44 11 44 6 0 5 -6 -2 -15z m-1890
1 c0 -2 -7 -7 -16 -10 -8 -3 -12 -2 -9 4 6 10 25 14 25 6z m1636 -33 c-10 -11
-36 -12 -36 -2 0 5 10 9 22 9 12 0 18 -3 14 -7z m54 -3 c0 -5 -4 -10 -10 -10
-5 0 -10 5 -10 10 0 6 5 10 10 10 6 0 10 -4 10 -10z m-1690 -34 c0 -3 -4 -8
-10 -11 -5 -3 -10 -1 -10 4 0 6 5 11 10 11 6 0 10 -2 10 -4z m62 -18 c-7 -7
-12 -8 -12 -2 0 6 3 14 7 17 3 4 9 5 12 2 2 -3 -1 -11 -7 -17z m1788 12 c0 -5
-4 -10 -10 -10 -5 0 -10 5 -10 10 0 6 5 10 10 10 6 0 10 -4 10 -10z m-1755
-30 c3 -5 1 -10 -4 -10 -6 0 -11 5 -11 10 0 6 2 10 4 10 3 0 8 -4 11 -10z
m1495 -100 c0 -5 -4 -10 -10 -10 -5 0 -10 5 -10 10 0 6 5 10 10 10 6 0 10 -4
10 -10z m110 -33 c0 -18 -2 -19 -10 -7 -13 20 -13 43 0 35 6 -3 10 -16 10 -28z
m-125 -37 c3 -5 1 -10 -4 -10 -6 0 -11 5 -11 10 0 6 2 10 4 10 3 0 8 -4 11
-10z m-25 -62 c0 -12 -10 -9 -26 6 -20 21 -17 28 6 14 11 -7 20 -16 20 -20z
m-153 -40 c0 -13 3 -31 7 -40 11 -25 -11 -23 -24 2 -8 14 -8 26 0 40 14 26 18
25 17 -2z m58 12 c3 -5 1 -10 -4 -10 -6 0 -11 5 -11 10 0 6 2 10 4 10 3 0 8
-4 11 -10z m235 -4 c0 -3 -4 -8 -10 -11 -5 -3 -10 -1 -10 4 0 6 5 11 10 11 6
0 10 -2 10 -4z m-225 -37 c0 -9 -9 -13 -24 -11 -30 3 -35 7 -26 21 9 15 50 7
50 -10z m150 -20 c-8 -12 -35 -12 -35 0 0 11 22 20 33 14 4 -2 5 -9 2 -14z
m-1869 -16 c-10 -10 -19 5 -10 18 6 11 8 11 12 0 2 -7 1 -15 -2 -18z m238 -12
c17 -18 24 -31 17 -36 -6 -3 -9 -16 -7 -28 1 -12 1 -16 -1 -9 -3 6 -11 12 -19
12 -9 0 -12 -5 -8 -12 5 -10 4 -10 -6 -1 -10 10 -11 15 -1 27 8 10 9 16 1 21
-6 3 -8 11 -4 16 3 5 0 16 -6 24 -23 27 6 15 34 -14z m-57 -33 c-3 -7 -5 -2
-5 12 0 14 2 19 5 13 2 -7 2 -19 0 -25z m-32 2 c3 -5 2 -10 -4 -10 -5 0 -13 5
-16 10 -3 6 -2 10 4 10 5 0 13 -4 16 -10z m1740 0 c-3 -5 -11 -10 -16 -10 -6
0 -7 5 -4 10 3 6 11 10 16 10 6 0 7 -4 4 -10z m-175 -15 c0 -8 -2 -15 -4 -15
-2 0 -6 7 -10 15 -3 8 -1 15 4 15 6 0 10 -7 10 -15z m-1541 -26 c-22 -14 -33
-10 -19 6 7 8 17 12 22 9 6 -4 5 -10 -3 -15z m1537 -36 c-11 -11 -19 6 -11 24
8 17 8 17 12 0 3 -10 2 -21 -1 -24z m34 -23 c0 -5 -2 -10 -4 -10 -3 0 -8 5
-11 10 -3 6 -1 10 4 10 6 0 11 -4 11 -10z m-140 -42 c0 -16 -3 -19 -11 -11 -6
6 -8 16 -5 22 11 17 16 13 16 -11z m130 8 c0 -3 -4 -8 -10 -11 -5 -3 -10 -1
-10 4 0 6 5 11 10 11 6 0 10 -2 10 -4z m190 -26 c0 -5 -4 -10 -10 -10 -5 0
-10 5 -10 10 0 6 5 10 10 10 6 0 10 -4 10 -10z m-280 -16 c0 -8 -4 -12 -10 -9
-5 3 -10 10 -10 16 0 5 5 9 10 9 6 0 10 -7 10 -16z m85 -3 c-3 -6 -11 -11 -17
-11 -6 0 -6 6 2 15 14 17 26 13 15 -4z m308 -29 c-12 -49 -24 -9 -13 48 0 3 5
-2 10 -11 5 -8 6 -25 3 -37z m-1300 31 c-7 -2 -19 -2 -25 0 -7 3 -2 5 12 5 14
0 19 -2 13 -5z m877 3 c0 -3 -4 -8 -10 -11 -5 -3 -10 -1 -10 4 0 6 5 11 10 11
6 0 10 -2 10 -4z m310 -46 c0 -5 -4 -10 -10 -10 -5 0 -10 5 -10 10 0 6 5 10
10 10 6 0 10 -4 10 -10z m-327 -48 c15 -23 -3 -32 -29 -16 -13 9 -24 20 -24
23 0 13 45 7 53 -7z m87 -7 c0 -8 -4 -15 -10 -15 -5 0 -10 7 -10 15 0 8 5 15
10 15 6 0 10 -7 10 -15z m-30 1 c0 -3 -4 -8 -10 -11 -5 -3 -10 -1 -10 4 0 6 5
11 10 11 6 0 10 -2 10 -4z m288 -24 c2 -7 -3 -12 -12 -12 -9 0 -16 7 -16 16 0
17 22 14 28 -4z m65 3 c4 -8 2 -17 -3 -20 -6 -4 -10 3 -10 14 0 25 6 27 13 6z
m-353 -15 c0 -5 -3 -10 -7 -11 -41 -4 -63 -3 -63 2 0 10 20 17 48 18 12 1 22
-3 22 -9z m50 -14 c0 -3 -4 -8 -10 -11 -5 -3 -10 -1 -10 4 0 6 5 11 10 11 6 0
10 -2 10 -4z m80 -16 c0 -5 -4 -10 -10 -10 -5 0 -10 5 -10 10 0 6 5 10 10 10
6 0 10 -4 10 -10z m139 0 c4 0 7 -9 8 -20 1 -11 -2 -20 -8 -20 -5 0 -9 7 -9
15 0 18 -27 20 -33 3 -2 -7 -8 -10 -12 -6 -12 11 16 40 32 33 8 -3 18 -5 22
-5z m-251 -46 c-10 -10 -28 6 -28 24 0 15 1 15 17 -1 9 -9 14 -19 11 -23z
m-54 2 c-7 -17 -34 -23 -34 -6 0 9 32 31 38 26 1 -2 0 -11 -4 -20z m196 -28
c0 -4 -4 -8 -10 -8 -5 0 -10 5 -10 10 0 6 -7 10 -15 10 -8 0 -15 4 -15 10 0 6
10 5 25 -2 14 -6 25 -15 25 -20z m117 16 c-3 -3 -12 -4 -19 -1 -8 3 -5 6 6 6
11 1 17 -2 13 -5z m-952 -84 c3 -5 -1 -10 -9 -10 -9 0 -16 5 -16 10 0 6 4 10
9 10 6 0 13 -4 16 -10z m415 -20 c0 -5 -10 -12 -23 -15 -12 -4 -27 -16 -32
-28 -12 -27 -54 -28 -109 -2 -45 22 -40 31 9 15 20 -6 44 -8 53 -4 9 4 22 8
28 8 6 1 18 9 28 19 19 18 46 23 46 7z m-1650 -32 c0 -16 -3 -19 -11 -11 -6 6
-8 16 -5 22 11 17 16 13 16 -11z m1690 13 c0 -12 -29 -41 -41 -41 -5 0 -9 7
-9 15 0 8 9 15 20 15 11 0 20 5 20 10 0 6 2 10 5 10 3 0 5 -4 5 -9z m50 2 c0
-14 -19 -38 -25 -32 -8 8 5 39 16 39 5 0 9 -3 9 -7z m-410 -23 c0 -5 -2 -10
-4 -10 -3 0 -8 5 -11 10 -3 6 -1 10 4 10 6 0 11 -4 11 -10z m-350 -10 c0 -5
-7 -10 -16 -10 -8 0 -12 5 -9 10 3 6 10 10 16 10 5 0 9 -4 9 -10z m700 -20 c0
-5 -4 -10 -10 -10 -5 0 -10 5 -10 10 0 6 5 10 10 10 6 0 10 -4 10 -10z m-680
-9 c0 -34 -75 -56 -87 -26 -8 23 2 28 25 14 17 -10 23 -10 37 4 19 19 25 21
25 8z m60 -11 c0 -5 -4 -10 -10 -10 -5 0 -10 5 -10 10 0 6 5 10 10 10 6 0 10
-4 10 -10z m300 6 c0 -3 -4 -8 -10 -11 -5 -3 -10 -1 -10 4 0 6 5 11 10 11 6 0
10 -2 10 -4z m400 -28 c0 -12 -14 -10 -28 4 -19 19 -14 29 8 16 11 -7 20 -16
20 -20z m-734 -15 c-11 -11 -19 6 -11 24 8 17 8 17 12 0 3 -10 2 -21 -1 -24z
m994 13 c0 -3 -4 -8 -10 -11 -5 -3 -10 -1 -10 4 0 6 5 11 10 11 6 0 10 -2 10
-4z m-1172 -26 c-13 -20 -28 -27 -28 -12 0 10 22 32 32 32 5 0 3 -9 -4 -20z
m146 3 c10 -24 -7 -35 -35 -23 -24 10 -24 10 4 7 29 -5 34 2 15 21 -8 8 -8 12
-1 12 6 0 14 -8 17 -17z m-74 -50 c0 -18 16 -17 24 2 8 22 23 18 30 -7 7 -23
7 -23 16 -2 7 17 14 20 42 16 18 -3 38 -12 44 -20 8 -11 13 -12 18 -4 10 17
26 15 20 -2 -3 -8 8 -20 30 -30 42 -20 47 -36 12 -36 -16 0 -27 7 -31 21 -7
21 -26 22 -33 1 -4 -13 44 -36 70 -33 9 1 22 -7 27 -18 18 -32 13 -42 -14 -35
l-25 6 20 -47 c11 -26 19 -50 17 -52 -3 -2 -19 10 -37 27 -27 25 -31 33 -19
40 12 8 10 13 -8 32 l-23 22 0 -33 c0 -28 -3 -32 -17 -26 -10 4 -30 8 -45 10
-20 3 -26 0 -21 -11 3 -7 0 -14 -6 -14 -6 0 -16 12 -22 28 l-11 27 -9 -24 c-7
-17 -13 -21 -20 -14 -8 8 -6 21 6 44 l18 33 17 -22 c10 -11 20 -18 24 -15 3 3
12 0 20 -6 12 -10 18 -9 34 7 16 16 17 22 7 36 -11 15 -13 14 -19 -9 -6 -24
-26 -36 -26 -14 0 5 -4 8 -9 4 -6 -3 -25 8 -44 25 -26 22 -36 27 -40 16 -3 -7
0 -19 6 -25 16 -16 0 -26 -18 -11 -12 10 -15 10 -15 0 0 -9 -7 -7 -20 5 -19
17 -20 17 -20 1 0 -9 -4 -14 -10 -11 -5 3 -10 16 -10 29 0 28 -8 36 -26 29
-11 -4 -12 -9 -4 -19 8 -9 8 -19 0 -34 -6 -12 -9 -28 -6 -35 4 -11 0 -12 -17
-6 -12 5 -24 16 -25 26 -3 13 1 16 20 10 l23 -6 -25 20 c-14 11 -31 21 -37 21
-15 0 -18 77 -3 100 7 11 11 9 19 -13 13 -34 13 -38 4 -34 -5 1 -9 -1 -10 -5
-4 -10 -1 -11 20 -3 9 4 17 16 17 26 0 16 5 18 29 14 23 -4 30 -1 34 15 5 18
8 19 31 9 14 -7 26 -18 26 -26z m-270 -10 c0 -13 -3 -13 -15 -3 -8 7 -15 19
-15 27 0 13 3 13 15 3 8 -7 15 -19 15 -27z m-343 2 c8 -9 13 -19 9 -22 -7 -7
-36 16 -36 28 0 13 10 11 27 -6z m866 -10 c4 -8 2 -17 -3 -20 -6 -4 -10 -4
-10 -1 0 2 -3 11 -6 20 -3 9 -2 16 4 16 5 0 12 -7 15 -15z m72 -75 c3 -5 -1
-10 -10 -10 -9 0 -13 5 -10 10 3 6 8 10 10 10 2 0 7 -4 10 -10z m-343 -47 c2
-32 4 -38 15 -58 5 -11 13 -33 17 -48 l7 -29 -30 21 c-35 25 -46 40 -37 48 3
4 13 -2 21 -13 19 -24 19 -17 0 36 -18 50 -18 60 -5 60 6 0 11 -8 12 -17z
m978 -11 c0 -15 -2 -15 -10 -2 -13 20 -13 33 0 25 6 -3 10 -14 10 -23z m-1020
9 c0 -5 3 -18 7 -28 6 -16 5 -16 -10 -4 -19 15 -23 41 -7 41 6 0 10 -4 10 -9z
m75 -1 c3 -5 2 -10 -4 -10 -5 0 -13 5 -16 10 -3 6 -2 10 4 10 5 0 13 -4 16
-10z m-201 -16 c3 -8 10 -12 16 -9 6 3 7 -1 4 -9 -3 -9 -10 -16 -15 -16 -8 0
-29 32 -29 44 0 13 18 5 24 -10z m981 -22 c-7 -8 -35 7 -35 18 0 6 7 6 20 -2
10 -7 17 -14 15 -16z m-395 8 c0 -5 -2 -10 -4 -10 -3 0 -8 5 -11 10 -3 6 -1
10 4 10 6 0 11 -4 11 -10z m438 -2 c-6 -18 -28 -21 -28 -4 0 9 7 16 16 16 9 0
14 -5 12 -12z m-903 -29 c9 -17 15 -37 13 -46 -2 -13 -9 -11 -35 11 -37 31
-44 66 -13 66 12 0 26 -12 35 -31z m371 17 c10 -8 16 -17 12 -21 -7 -7 -48 16
-48 27 0 12 14 9 36 -6z m69 4 c3 -5 -1 -10 -9 -10 -8 0 -18 5 -21 10 -3 6 1
10 9 10 8 0 18 -4 21 -10z m-522 -25 c-8 -21 6 -53 16 -37 6 9 12 7 26 -8 19
-21 13 -42 -6 -23 -6 6 -18 9 -25 6 -7 -3 -21 2 -29 11 -18 18 -75 22 -75 5 0
-5 -5 -7 -11 -3 -8 5 -8 8 0 14 7 3 9 14 5 23 -7 19 11 23 22 6 4 -8 9 -8 17
0 7 7 15 7 24 -1 11 -9 15 -7 20 10 3 12 9 19 14 17 4 -3 6 -12 2 -20z m947
-21 c0 -17 -12 -18 -27 -3 -17 17 -5 43 13 28 8 -6 14 -18 14 -25z m-666 -20
c5 -14 4 -15 -9 -4 -17 14 -19 20 -6 20 5 0 12 -7 15 -16z m166 -4 c0 -5 -4
-10 -10 -10 -5 0 -10 5 -10 10 0 6 5 10 10 10 6 0 10 -4 10 -10z m120 -16 c0
-2 -7 -4 -15 -4 -8 0 -15 4 -15 10 0 5 7 7 15 4 8 -4 15 -8 15 -10z m-630 -4
c0 -5 -4 -10 -10 -10 -5 0 -10 5 -10 10 0 6 5 10 10 10 6 0 10 -4 10 -10z m25
0 c3 -5 1 -10 -4 -10 -6 0 -11 5 -11 10 0 6 2 10 4 10 3 0 8 -4 11 -10z m255
-21 c0 -6 -4 -7 -10 -4 -5 3 -10 11 -10 16 0 6 5 7 10 4 6 -3 10 -11 10 -16z
m-215 1 c-3 -5 -11 -10 -16 -10 -6 0 -7 5 -4 10 3 6 11 10 16 10 6 0 7 -4 4
-10z m545 -5 c7 -8 8 -15 2 -15 -5 0 -15 7 -22 15 -7 8 -8 15 -2 15 5 0 15 -7
22 -15z m-610 -25 c-23 -15 -50 -12 -44 4 7 18 35 26 49 14 6 -6 5 -12 -5 -18z
m535 20 c3 -5 2 -10 -4 -10 -5 0 -13 5 -16 10 -3 6 -2 10 4 10 5 0 13 -4 16
-10z m-395 -10 c0 -5 -2 -10 -4 -10 -3 0 -8 5 -11 10 -3 6 -1 10 4 10 6 0 11
-4 11 -10z m-215 -60 c5 -23 4 -32 -3 -25 -5 6 -13 26 -17 45 -5 23 -4 32 3
25 5 -5 13 -26 17 -45z m1091 3 c-10 -10 -19 5 -10 18 6 11 8 11 12 0 2 -7 1
-15 -2 -18z m-1056 -14 c0 -11 -4 -17 -10 -14 -5 3 -10 15 -10 26 0 11 5 17
10 14 6 -3 10 -15 10 -26z m80 9 c0 -19 -2 -20 -10 -8 -13 19 -13 30 0 30 6 0
10 -10 10 -22z m70 -31 c0 -18 -2 -19 -10 -7 -13 20 -13 43 0 35 6 -3 10 -16
10 -28z m894 -47 c3 -14 3 -19 0 -12 -3 6 -13 12 -22 13 -10 0 -12 3 -5 5 7 3
9 13 6 22 -4 12 -3 14 4 7 6 -5 13 -21 17 -35z m-1114 15 c0 -8 -4 -15 -10
-15 -5 0 -10 7 -10 15 0 8 5 15 10 15 6 0 10 -7 10 -15z m139 -53 c0 -24 -1
-25 -9 -7 -12 28 -12 47 0 40 6 -3 10 -18 9 -33z m951 18 c0 -5 -4 -10 -10
-10 -5 0 -10 5 -10 10 0 6 5 10 10 10 6 0 10 -4 10 -10z m-1195 -250 c3 -5 1
-10 -4 -10 -6 0 -11 5 -11 10 0 6 2 10 4 10 3 0 8 -4 11 -10z m1139 -19 c3 -5
-1 -11 -9 -15 -9 -3 -15 0 -15 9 0 16 16 20 24 6z m-869 -41 c3 -5 1 -10 -4
-10 -6 0 -11 5 -11 10 0 6 2 10 4 10 3 0 8 -4 11 -10z m-65 -101 c0 -6 -4 -7
-10 -4 -5 3 -10 11 -10 16 0 6 5 7 10 4 6 -3 10 -11 10 -16z m-10 -59 c0 -5
-2 -10 -4 -10 -3 0 -8 5 -11 10 -3 6 -1 10 4 10 6 0 11 -4 11 -10z m880 0 c0
-5 -7 -10 -15 -10 -8 0 -15 5 -15 10 0 6 7 10 15 10 8 0 15 -4 15 -10z m-56
-46 c20 -8 21 -34 2 -34 -7 0 -16 9 -19 20 -6 22 -5 23 17 14z m-514 -24 c0
-5 -2 -10 -4 -10 -3 0 -8 5 -11 10 -3 6 -1 10 4 10 6 0 11 -4 11 -10z m30 0
c0 -5 -2 -10 -4 -10 -3 0 -8 5 -11 10 -3 6 -1 10 4 10 6 0 11 -4 11 -10z
m-480 -24 c0 -11 -19 -15 -25 -6 -3 5 1 10 9 10 9 0 16 -2 16 -4z m970 -21 c0
-8 -4 -15 -10 -15 -5 0 -10 7 -10 15 0 8 5 15 10 15 6 0 10 -7 10 -15z m-402
-45 c26 -34 27 -40 8 -40 -16 0 -31 17 -40 48 -10 31 6 28 32 -8z m462 10 c0
-5 -4 -10 -10 -10 -5 0 -10 5 -10 10 0 6 5 10 10 10 6 0 10 -4 10 -10z m-1112
-12 c19 -19 14 -30 -8 -18 -11 6 -20 15 -20 20 0 14 14 12 28 -2z m512 2 c0
-5 -2 -10 -4 -10 -3 0 -8 5 -11 10 -3 6 -1 10 4 10 6 0 11 -4 11 -10z m95 0
c3 -5 2 -10 -4 -10 -5 0 -13 5 -16 10 -3 6 -2 10 4 10 5 0 13 -4 16 -10z
m-550 -21 c11 -17 -1 -21 -15 -4 -8 9 -8 15 -2 15 6 0 14 -5 17 -11z m245 -9
c0 -5 -7 -10 -16 -10 -8 0 -12 5 -9 10 3 6 10 10 16 10 5 0 9 -4 9 -10z m-253
-32 c13 -12 23 -25 23 -30 0 -17 -17 -7 -38 22 -26 35 -18 39 15 8z m213 12
c0 -5 -5 -10 -11 -10 -5 0 -7 5 -4 10 3 6 8 10 11 10 2 0 4 -4 4 -10z m-341
-26 c3 -16 1 -17 -13 -5 -19 16 -21 34 -3 29 6 -3 14 -13 16 -24z m751 -20 c0
-8 -4 -12 -10 -9 -5 3 -10 10 -10 16 0 5 5 9 10 9 6 0 10 -7 10 -16z m-40 -15
c0 -6 -4 -7 -10 -4 -5 3 -10 11 -10 16 0 6 5 7 10 4 6 -3 10 -11 10 -16z m-60
-4 c10 -12 10 -15 -3 -15 -8 0 -20 7 -27 15 -10 12 -10 15 3 15 8 0 20 -7 27
-15z m365 5 c3 -5 1 -10 -4 -10 -6 0 -11 5 -11 10 0 6 2 10 4 10 3 0 8 -4 11
-10z m-455 -50 c0 -5 -4 -10 -9 -10 -6 0 -13 5 -16 10 -3 6 1 10 9 10 9 0 16
-4 16 -10z m480 -10 c0 -5 -4 -10 -10 -10 -5 0 -10 5 -10 10 0 6 5 10 10 10 6
0 10 -4 10 -10z m-440 -43 c13 -18 17 -26 7 -18 -27 21 -20 -3 10 -33 14 -14
23 -29 20 -32 -11 -11 -74 67 -74 92 0 31 7 30 37 -9z m10 23 c0 -5 -2 -10 -4
-10 -3 0 -8 5 -11 10 -3 6 -1 10 4 10 6 0 11 -4 11 -10z m38 -8 c6 -18 -15
-14 -22 4 -4 10 -1 14 6 12 6 -2 14 -10 16 -16z m320 0 c6 -18 -15 -14 -22 4
-4 10 -1 14 6 12 6 -2 14 -10 16 -16z m-203 -2 c3 -5 1 -10 -4 -10 -6 0 -11 5
-11 10 0 6 2 10 4 10 3 0 8 -4 11 -10z m-55 -70 c0 -5 -4 -10 -10 -10 -5 0
-10 5 -10 10 0 6 5 10 10 10 6 0 10 -4 10 -10z m330 -20 c0 -5 -2 -10 -4 -10
-3 0 -8 5 -11 10 -3 6 -1 10 4 10 6 0 11 -4 11 -10z m-510 -14 c0 -11 -19 -15
-25 -6 -3 5 1 10 9 10 9 0 16 -2 16 -4z m225 -34 c-6 -7 -35 18 -35 31 0 5 9
2 20 -8 11 -10 18 -20 15 -23z m-268 -4 c-3 -8 -6 -5 -6 6 -1 11 2 17 5 13 3
-3 4 -12 1 -19z m197 -77 c-3 -3 -11 2 -18 12 -7 9 -16 17 -20 17 -15 0 -37
30 -30 41 4 7 19 -3 40 -27 19 -20 31 -40 28 -43z m-95 43 c3 -16 1 -17 -13
-5 -19 16 -21 34 -3 29 6 -3 14 -13 16 -24z m157 -31 c-4 -4 -11 -1 -16 7 -16
25 -11 35 7 17 9 -9 13 -20 9 -24z m54 17 c0 -5 -2 -10 -4 -10 -3 0 -8 5 -11
10 -3 6 -1 10 4 10 6 0 11 -4 11 -10z m-157 -53 c-9 -16 -24 9 -17 28 7 18 8
18 14 -1 4 -10 5 -23 3 -27z m-39 -30 c15 -21 17 -30 8 -39 -8 -8 -14 -5 -21
14 -5 15 -15 29 -20 33 -15 9 -14 28 1 23 6 -2 21 -16 32 -31z m-99 12 c12
-19 -5 -23 -22 -6 -16 16 -16 17 -1 17 9 0 20 -5 23 -11z m265 -40 c0 -5 -4
-9 -10 -9 -5 0 -10 7 -10 16 0 8 5 12 10 9 6 -3 10 -10 10 -16z m-126 -45 c4
-9 5 -19 2 -21 -7 -7 -46 17 -46 27 0 17 37 11 44 -6z m34 -3 c3 -8 -1 -12 -9
-9 -7 2 -15 10 -17 17 -3 8 1 12 9 9 7 -2 15 -10 17 -17z m-179 -65 c0 -21 0
-21 -9 0 -5 12 -13 25 -19 29 -6 3 -11 11 -11 17 0 6 9 3 20 -7 11 -10 20 -28
19 -39z m111 -26 c0 -5 -4 -10 -10 -10 -5 0 -10 5 -10 10 0 6 5 10 10 10 6 0
10 -4 10 -10z m84 -15 c3 -8 2 -15 -3 -15 -5 0 -14 7 -21 15 -10 12 -10 15 3
15 8 0 17 -7 21 -15z m-181 -28 c16 -6 24 -27 10 -27 -11 0 -43 33 -43 44 0 8
2 8 8 0 4 -6 15 -13 25 -17z m87 -19 c0 -6 -7 -5 -15 2 -8 7 -15 17 -15 22 0
6 7 5 15 -2 8 -7 15 -17 15 -22z m-127 9 c3 -8 1 -20 -3 -28 -7 -11 -13 -10
-30 6 -20 18 -20 20 -3 26 26 11 30 10 36 -4z m-59 -23 c20 -8 21 -24 2 -24
-8 0 -16 7 -20 15 -6 17 -4 18 18 9z m52 -62 c-9 -8 -26 10 -26 26 1 15 2 15
15 -2 8 -11 13 -21 11 -24z m14 -55 c0 -6 -9 -2 -20 8 -11 10 -20 23 -20 28 0
6 9 2 20 -8 11 -10 20 -23 20 -28z m-9 -45 c6 -16 5 -22 -6 -22 -8 0 -15 4
-15 9 0 5 -3 17 -7 27 -4 11 -2 15 7 12 7 -2 17 -14 21 -26z m-71 -3 c0 -11
-4 -18 -10 -14 -5 3 -7 12 -3 20 7 21 13 19 13 -6z m40 -54 c0 -8 -7 -15 -15
-15 -9 0 -12 6 -9 15 4 8 10 15 15 15 5 0 9 -7 9 -15z m140 -5 c0 -5 -4 -10
-10 -10 -5 0 -10 5 -10 10 0 6 5 10 10 10 6 0 10 -4 10 -10z m-312 -52 c7 -7
12 -19 12 -27 0 -11 -4 -10 -20 4 -21 19 -26 35 -12 35 4 0 13 -5 20 -12z
m162 2 c0 -5 -2 -10 -4 -10 -3 0 -8 5 -11 10 -3 6 -1 10 4 10 6 0 11 -4 11
-10z m346 -17 c-10 -10 -19 5 -10 18 6 11 8 11 12 0 2 -7 1 -15 -2 -18z m-486
-49 c0 -8 -5 -12 -10 -9 -6 4 -8 11 -5 16 9 14 15 11 15 -7z m128 -2 c6 -18
-15 -14 -22 4 -4 10 -1 14 6 12 6 -2 14 -10 16 -16z m282 -52 c0 -5 -5 -10
-11 -10 -5 0 -7 5 -4 10 3 6 8 10 11 10 2 0 4 -4 4 -10z m-366 -24 c-3 -9 -10
-13 -15 -10 -5 3 -3 11 4 19 15 16 19 13 11 -9z m-184 -111 c0 -8 -4 -15 -10
-15 -5 0 -10 7 -10 15 0 8 5 15 10 15 6 0 10 -7 10 -15z m64 -1 c9 -22 -3 -32
-14 -14 -12 19 -12 30 -1 30 5 0 12 -7 15 -16z m-104 -70 c0 -8 -7 -14 -15
-14 -15 0 -21 21 -9 33 10 9 24 -2 24 -19z"/>
<path d="M6620 6720 c0 -5 5 -10 10 -10 6 0 10 5 10 10 0 6 -4 10 -10 10 -5 0
-10 -4 -10 -10z"/>
<path d="M6585 6580 c3 -5 11 -10 16 -10 6 0 7 5 4 10 -3 6 -11 10 -16 10 -6
0 -7 -4 -4 -10z"/>
<path d="M6040 3320 c0 -5 4 -10 9 -10 6 0 13 5 16 10 3 6 -1 10 -9 10 -9 0
-16 -4 -16 -10z"/>
<path d="M5482 3129 c-13 -5 -20 -13 -17 -19 8 -14 35 -13 35 1 0 8 6 7 18 -2
16 -13 16 -13 2 6 -8 11 -14 21 -15 21 0 1 -10 -2 -23 -7z"/>
<path d="M5390 3120 c0 -5 5 -10 11 -10 5 0 7 5 4 10 -3 6 -8 10 -11 10 -2 0
-4 -4 -4 -10z"/>
<path d="M5630 3065 c-11 -13 -8 -15 15 -15 23 0 26 2 15 15 -7 8 -14 15 -15
15 -1 0 -8 -7 -15 -15z"/>
<path d="M2740 8316 c0 -2 8 -10 18 -17 15 -13 16 -12 3 4 -13 16 -21 21 -21
13z"/>
<path d="M3854 8151 c-13 -13 -1 -22 24 -17 15 4 41 3 57 -2 17 -4 53 -5 80
-1 l50 6 -57 1 c-74 2 -71 2 -84 13 -11 9 -61 9 -70 0z"/>
<path d="M3285 8140 c-8 -13 5 -13 25 0 13 8 13 10 -2 10 -9 0 -20 -4 -23 -10z"/>
<path d="M4383 8143 c-13 -2 -23 -8 -23 -13 0 -11 60 -19 66 -8 3 4 -2 8 -11
8 -9 0 -13 5 -10 10 3 6 5 9 3 9 -2 -1 -13 -4 -25 -6z"/>
<path d="M3733 8117 c-13 -5 -23 -14 -23 -19 0 -5 9 -4 19 2 11 5 34 10 52 10
18 0 29 3 26 7 -12 11 -51 11 -74 0z"/>
<path d="M3106 8105 c4 -8 17 -15 30 -15 13 0 33 -9 45 -21 11 -11 35 -22 52
-24 111 -14 125 -14 130 -2 4 10 -13 13 -65 13 -39 1 -73 5 -77 10 -8 11 -94
54 -109 54 -6 0 -9 -7 -6 -15z"/>
<path d="M3825 8109 c-10 -16 -4 -16 45 -3 l45 12 -42 1 c-23 1 -45 -4 -48
-10z"/>
<path d="M3651 8095 c-23 -13 -22 -13 13 -13 22 0 36 4 33 11 -5 16 -19 17
-46 2z"/>
<path d="M3596 8061 c-4 -6 -20 -11 -35 -11 -15 0 -36 -7 -47 -16 -18 -14 -18
-15 6 -8 14 4 35 7 47 6 12 -1 24 2 28 7 3 5 15 7 28 5 12 -2 15 -1 7 2 -8 4
-18 11 -21 17 -4 5 -9 5 -13 -2z"/>
<path d="M3420 8026 c0 -2 13 -6 29 -8 17 -2 28 -1 25 4 -5 8 -54 12 -54 4z"/>
<path d="M3370 7996 c0 -2 11 -6 25 -8 14 -3 25 -1 25 3 0 5 -11 9 -25 9 -14
0 -25 -2 -25 -4z"/>
<path d="M5260 7850 c0 -5 5 -10 10 -10 6 0 10 5 10 10 0 6 -4 10 -10 10 -5 0
-10 -4 -10 -10z"/>
<path d="M5105 7760 c-3 -5 -1 -10 4 -10 6 0 11 5 11 10 0 6 -2 10 -4 10 -3 0
-8 -4 -11 -10z"/>
<path d="M5112 7720 c0 -14 2 -19 5 -12 2 6 2 18 0 25 -3 6 -5 1 -5 -13z"/>
<path d="M5369 7709 c-23 -19 -23 -20 -2 -10 12 6 25 16 28 21 10 16 -1 12
-26 -11z"/>
<path d="M5150 7485 c0 -8 5 -15 10 -15 6 0 10 7 10 15 0 8 -4 15 -10 15 -5 0
-10 -7 -10 -15z"/>
<path d="M5560 7449 c0 -5 5 -7 10 -4 6 3 10 8 10 11 0 2 -4 4 -10 4 -5 0 -10
-5 -10 -11z"/>
<path d="M5160 7420 c0 -5 5 -10 11 -10 5 0 7 5 4 10 -3 6 -8 10 -11 10 -2 0
-4 -4 -4 -10z"/>
<path d="M5650 7410 c-9 -6 -10 -10 -3 -10 6 0 15 5 18 10 8 12 4 12 -15 0z"/>
<path d="M5830 6890 c0 -5 5 -10 11 -10 5 0 7 5 4 10 -3 6 -8 10 -11 10 -2 0
-4 -4 -4 -10z"/>
<path d="M5806 6834 c-4 -10 -1 -14 6 -12 15 5 23 28 10 28 -5 0 -13 -7 -16
-16z"/>
<path d="M5805 6800 c-16 -7 -17 -9 -3 -9 9 -1 20 4 23 9 7 11 7 11 -20 0z"/>
<path d="M5715 6760 c3 -5 8 -10 11 -10 2 0 4 5 4 10 0 6 -5 10 -11 10 -5 0
-7 -4 -4 -10z"/>
<path d="M1790 6696 c0 -2 7 -6 15 -10 8 -3 15 -1 15 4 0 6 -7 10 -15 10 -8 0
-15 -2 -15 -4z"/>
<path d="M5758 6683 c7 -3 16 -2 19 1 4 3 -2 6 -13 5 -11 0 -14 -3 -6 -6z"/>
<path d="M5788 6663 c6 -2 18 -2 25 0 6 3 1 5 -13 5 -14 0 -19 -2 -12 -5z"/>
<path d="M5775 6630 c-13 -6 -15 -9 -5 -9 8 0 22 4 30 9 18 12 2 12 -25 0z"/>
<path d="M5838 6633 c-10 -2 -18 -9 -18 -14 0 -13 12 -11 34 6 20 15 16 17
-16 8z"/>
<path d="M5967 6615 c-9 -7 -14 -15 -10 -18 3 -4 11 -3 17 2 6 5 20 11 31 13
20 4 20 4 -1 10 -11 3 -28 0 -37 -7z"/>
<path d="M6040 6603 c0 -17 8 -16 26 1 12 13 12 15 -6 13 -11 -1 -20 -7 -20
-14z"/>
<path d="M5860 6590 c8 -5 24 -9 35 -9 l20 0 -20 9 c-11 5 -27 9 -35 9 -13 1
-13 0 0 -9z"/>
<path d="M6075 6580 c3 -5 8 -10 11 -10 2 0 4 5 4 10 0 6 -5 10 -11 10 -5 0
-7 -4 -4 -10z"/>
<path d="M5710 6570 c0 -5 5 -10 10 -10 6 0 10 5 10 10 0 6 -4 10 -10 10 -5 0
-10 -4 -10 -10z"/>
<path d="M5915 6570 c-4 -6 -4 -10 -1 -10 2 0 11 -3 20 -6 9 -3 16 -2 16 4 0
14 -28 23 -35 12z"/>
<path d="M5995 6570 c3 -5 10 -10 16 -10 5 0 9 5 9 10 0 6 -7 10 -16 10 -8 0
-12 -4 -9 -10z"/>
<path d="M5828 6553 c6 -2 18 -2 25 0 6 3 1 5 -13 5 -14 0 -19 -2 -12 -5z"/>
<path d="M6197 6513 c-10 -9 -9 -23 2 -23 5 0 11 7 15 15 5 15 -5 20 -17 8z"/>
<path d="M6206 6455 c-9 -24 -8 -35 4 -35 6 0 10 7 10 16 0 13 3 14 14 4 8 -6
12 -18 9 -26 -6 -16 32 -20 42 -4 3 6 -1 10 -9 10 -19 0 -21 16 -3 23 6 3 1 6
-13 6 -15 1 -31 6 -37 12 -7 7 -12 6 -17 -6z"/>
<path d="M6628 6423 c7 -3 16 -2 19 1 4 3 -2 6 -13 5 -11 0 -14 -3 -6 -6z"/>
<path d="M6670 6419 c0 -5 5 -7 10 -4 6 3 10 8 10 11 0 2 -4 4 -10 4 -5 0 -10
-5 -10 -11z"/>
<path d="M6649 6381 c7 -5 11 -14 7 -20 -5 -7 -1 -9 8 -5 20 8 20 20 0 28 -23
9 -31 7 -15 -3z"/>
<path d="M6527 6363 c-4 -3 -7 -11 -7 -17 0 -6 5 -5 12 2 6 6 9 14 7 17 -3 3
-9 2 -12 -2z"/>
<path d="M6305 6350 c4 -6 11 -8 16 -5 14 9 11 15 -7 15 -8 0 -12 -5 -9 -10z"/>
<path d="M6547 6343 c-11 -10 -8 -35 2 -28 5 3 13 0 17 -6 7 -12 24 6 24 26 0
6 -4 4 -9 -4 -5 -7 -14 -10 -20 -7 -6 4 -9 12 -6 17 7 10 1 12 -8 2z"/>
<path d="M6638 6305 c-6 -28 3 -32 21 -11 8 10 8 16 -3 25 -11 9 -15 6 -18
-14z"/>
<path d="M6480 6310 c-9 -6 -10 -10 -3 -10 6 0 15 5 18 10 8 12 4 12 -15 0z"/>
<path d="M6608 6303 c7 -3 16 -2 19 1 4 3 -2 6 -13 5 -11 0 -14 -3 -6 -6z"/>
<path d="M5448 6293 c7 -3 16 -2 19 1 4 3 -2 6 -13 5 -11 0 -14 -3 -6 -6z"/>
<path d="M6580 6246 c0 -2 7 -6 15 -10 8 -3 15 -1 15 4 0 6 -7 10 -15 10 -8 0
-15 -2 -15 -4z"/>
<path d="M6555 6229 c-4 -6 -5 -12 -2 -15 2 -3 7 2 10 11 7 17 1 20 -8 4z"/>
<path d="M6325 6220 c-3 -5 -2 -10 4 -10 5 0 13 5 16 10 3 6 2 10 -4 10 -5 0
-13 -4 -16 -10z"/>
<path d="M6370 6220 c0 -5 4 -10 9 -10 6 0 13 5 16 10 3 6 -1 10 -9 10 -9 0
-16 -4 -16 -10z"/>
<path d="M6480 6200 c0 -11 2 -20 4 -20 2 0 6 9 9 20 3 11 1 20 -4 20 -5 0 -9
-9 -9 -20z"/>
<path d="M6625 6200 c3 -5 10 -10 16 -10 5 0 9 5 9 10 0 6 -7 10 -16 10 -8 0
-12 -4 -9 -10z"/>
<path d="M6385 6170 c-17 -7 -14 -9 13 -9 20 -1 31 3 27 9 -7 12 -13 12 -40 0z"/>
<path d="M6436 6151 c-5 -8 -3 -16 5 -22 19 -12 29 -11 29 2 0 5 -4 8 -9 4 -5
-3 -11 3 -13 12 -3 14 -5 15 -12 4z"/>
<path d="M6020 6135 c33 -19 50 -18 26 0 -11 8 -27 15 -35 15 -10 -1 -7 -6 9
-15z"/>
<path d="M6150 6146 c0 -9 40 -13 46 -5 3 5 -6 9 -20 9 -14 0 -26 -2 -26 -4z"/>
<path d="M6710 6142 c0 -7 -6 -12 -14 -12 -8 0 -17 -4 -20 -9 -4 -5 3 -7 14
-4 22 6 35 21 26 30 -3 4 -6 1 -6 -5z"/>
<path d="M5810 6121 c25 -14 70 -22 70 -12 0 4 -14 11 -31 15 -42 8 -57 7 -39
-3z"/>
<path d="M6766 6117 c3 -10 9 -15 12 -12 3 3 0 11 -7 18 -10 9 -11 8 -5 -6z"/>
<path d="M6120 6100 c6 -11 15 -18 21 -14 6 4 6 11 -2 20 -17 21 -31 17 -19
-6z"/>
<path d="M4451 6084 c-15 -11 -19 -20 -13 -26 12 -12 -15 -48 -36 -48 -9 0
-11 -7 -7 -19 3 -11 2 -22 -3 -25 -5 -3 -8 -27 -7 -53 0 -29 -5 -55 -14 -66
-15 -17 -19 -35 -25 -90 -2 -15 -6 -30 -9 -34 -13 -12 -7 -64 10 -89 14 -22
14 -29 4 -46 -12 -19 -11 -20 6 -13 10 4 24 8 31 9 6 1 30 15 52 32 41 29 58
63 44 85 -17 28 -22 94 -9 135 13 44 17 229 6 251 -5 10 -12 9 -30 -3z m19
-131 c0 -13 -5 -23 -10 -23 -6 0 -10 8 -8 17 2 11 -6 19 -22 24 -22 7 -22 7 8
6 26 -1 32 -5 32 -24z m-110 -268 c0 -8 -2 -15 -4 -15 -2 0 -6 7 -10 15 -3 8
-1 15 4 15 6 0 10 -7 10 -15z"/>
<path d="M5610 6090 c0 -5 5 -10 11 -10 5 0 7 5 4 10 -3 6 -8 10 -11 10 -2 0
-4 -4 -4 -10z"/>
<path d="M6170 6091 c24 -13 77 -24 65 -13 -5 5 -26 12 -45 16 -21 3 -29 2
-20 -3z"/>
<path d="M6285 6090 c-3 -5 1 -10 10 -10 9 0 13 5 10 10 -3 6 -8 10 -10 10 -2
0 -7 -4 -10 -10z"/>
<path d="M6590 6093 c-42 -8 -42 -19 0 -15 22 2 40 8 40 13 0 5 -3 8 -7 8 -5
-1 -19 -4 -33 -6z"/>
<path d="M6655 6090 c-3 -5 -1 -10 4 -10 6 0 11 5 11 10 0 6 -2 10 -4 10 -3 0
-8 -4 -11 -10z"/>
<path d="M5146 6074 c-5 -14 -4 -15 9 -4 17 14 19 20 6 20 -5 0 -12 -7 -15
-16z"/>
<path d="M5850 6086 c0 -3 9 -10 20 -16 11 -6 20 -8 20 -6 0 3 -9 10 -20 16
-11 6 -20 8 -20 6z"/>
<path d="M6496 6081 c-3 -5 5 -8 19 -8 14 0 22 3 19 8 -3 5 -11 9 -19 9 -8 0
-16 -4 -19 -9z"/>
<path d="M5365 6070 c-3 -5 1 -10 10 -10 9 0 13 5 10 10 -3 6 -8 10 -10 10 -2
0 -7 -4 -10 -10z"/>
<path d="M5645 6070 c3 -5 8 -10 11 -10 2 0 4 5 4 10 0 6 -5 10 -11 10 -5 0
-7 -4 -4 -10z"/>
<path d="M6790 6069 c0 -5 5 -7 10 -4 6 3 10 8 10 11 0 2 -4 4 -10 4 -5 0 -10
-5 -10 -11z"/>
<path d="M5041 6032 c-17 -31 -13 -40 5 -14 9 13 14 26 11 29 -3 2 -10 -4 -16
-15z"/>
<path d="M5115 6040 c-3 -5 -1 -10 4 -10 6 0 11 5 11 10 0 6 -2 10 -4 10 -3 0
-8 -4 -11 -10z"/>
<path d="M4995 6010 c-3 -5 -1 -10 4 -10 6 0 11 5 11 10 0 6 -2 10 -4 10 -3 0
-8 -4 -11 -10z"/>
<path d="M6488 6013 c6 -2 18 -2 25 0 6 3 1 5 -13 5 -14 0 -19 -2 -12 -5z"/>
<path d="M6851 5993 c7 -12 15 -20 18 -17 3 2 -3 12 -13 22 -17 16 -18 16 -5
-5z"/>
<path d="M4019 5995 c-3 -22 -6 -31 -17 -57 -6 -16 -16 -28 -22 -28 -5 0 -10
-5 -10 -11 0 -6 9 -9 19 -6 13 3 18 0 15 -8 -3 -7 2 -15 10 -18 17 -7 18 -4
20 71 1 38 -11 85 -15 57z"/>
<path d="M6655 5990 c-18 -8 -17 -9 8 -9 16 -1 26 3 22 9 -3 6 -7 10 -8 9 -1
0 -11 -4 -22 -9z"/>
<path d="M6598 5983 c7 -3 16 -2 19 1 4 3 -2 6 -13 5 -11 0 -14 -3 -6 -6z"/>
<path d="M6596 5957 c8 -5 22 -6 30 -3 8 3 14 1 14 -4 0 -5 7 -7 15 -4 28 11
15 20 -30 20 -31 0 -40 -3 -29 -9z"/>
<path d="M4927 5933 c-4 -3 -7 -11 -7 -17 0 -6 5 -5 12 2 6 6 9 14 7 17 -3 3
-9 2 -12 -2z"/>
<path d="M3493 5872 c-3 -12 -11 -18 -18 -16 -7 3 -16 1 -20 -5 -3 -6 1 -11
10 -11 9 0 27 -7 41 -16 29 -20 48 -9 20 12 -19 14 -19 14 2 14 12 0 26 -10
33 -22 7 -13 19 -27 27 -32 11 -6 12 -10 2 -16 -8 -5 -28 0 -47 11 -20 12 -43
17 -54 14 -15 -5 -28 3 -49 27 -23 25 -30 29 -30 15 0 -14 -8 -17 -46 -14 -26
1 -49 9 -55 17 -8 13 -10 13 -19 0 -7 -11 -10 -11 -10 -2 0 8 -5 10 -12 5 -7
-4 -30 -8 -52 -9 -35 -2 -79 -24 -47 -24 7 0 9 -5 6 -10 -4 -6 -10 -8 -15 -5
-5 3 -12 0 -15 -6 -5 -7 -15 -3 -31 12 -22 21 -24 21 -65 5 -23 -9 -44 -14
-47 -11 -3 3 0 5 6 5 13 0 42 28 42 41 0 5 -24 -6 -53 -24 -82 -53 -105 -56
-98 -14 2 11 -6 8 -23 -8 -11 -12 -21 -13 -42 -5 -28 11 -80 5 -89 -10 -3 -5
10 -8 30 -7 19 1 35 5 35 9 0 4 11 2 25 -4 14 -6 25 -15 25 -19 0 -5 8 -6 18
-2 10 4 7 -2 -8 -14 -14 -11 -34 -22 -45 -24 -11 -3 -20 -11 -20 -18 0 -8 -6
-16 -13 -19 -8 -2 -10 2 -5 14 4 12 2 15 -8 12 -8 -3 -13 -13 -13 -22 1 -9 -2
-16 -7 -16 -4 0 -20 -11 -35 -25 -15 -14 -33 -25 -40 -25 -28 0 -21 -18 15
-38 l38 -22 26 20 c29 23 40 25 34 8 -2 -7 3 -18 11 -24 12 -9 8 -10 -16 -6
-34 5 -42 -8 -17 -28 13 -11 36 -15 107 -19 20 -1 26 -5 22 -16 -5 -13 -9 -13
-34 0 -37 19 -60 19 -34 1 17 -13 13 -15 -42 -14 -33 1 -65 -2 -71 -5 -6 -4
-33 -10 -60 -14 -26 -3 -73 -17 -103 -31 -57 -26 -111 -73 -92 -80 18 -6 -10
-30 -29 -25 -9 3 -20 0 -23 -6 -4 -7 1 -11 13 -11 22 0 28 -14 11 -25 -5 -3
-10 -10 -10 -16 0 -16 19 -10 42 13 13 13 23 17 26 10 2 -6 10 -8 18 -5 7 3
11 9 8 14 -3 5 0 9 7 9 7 0 20 7 29 15 20 18 51 10 43 -11 -9 -23 15 -16 28 9
18 34 48 56 85 63 19 3 37 10 40 15 3 5 10 6 17 2 21 -13 57 -9 57 6 0 34 15
-4 17 -46 6 -82 73 -190 109 -176 8 3 21 0 29 -7 10 -8 15 -9 15 -1 0 6 -13
17 -29 26 -44 22 -62 45 -56 66 4 10 2 19 -3 19 -5 0 -9 18 -8 40 0 25 5 40
13 40 7 0 13 5 13 11 0 6 -7 9 -15 5 -8 -3 -15 -1 -15 4 0 12 46 24 59 15 16
-9 13 -35 -4 -35 -8 0 -15 -7 -15 -15 0 -18 17 -20 23 -2 6 20 37 -12 37 -39
0 -16 6 -24 17 -24 9 0 25 -7 35 -17 14 -13 18 -13 18 -2 0 8 11 15 25 15 14
1 25 -2 25 -7 0 -5 4 -9 10 -9 5 0 7 7 4 15 -8 20 5 19 28 -2 17 -15 19 -15
32 3 8 10 12 22 10 26 -3 5 2 8 10 8 9 0 16 5 16 10 0 6 7 10 15 10 8 0 15 -4
15 -10 0 -5 -4 -10 -10 -10 -5 0 -10 -10 -10 -22 0 -30 -15 -52 -29 -44 -6 4
-11 1 -11 -6 -1 -24 -48 -48 -115 -57 -88 -13 -99 -26 -15 -17 87 9 193 41
214 65 24 26 131 22 155 -5 13 -16 26 -18 76 -14 56 5 58 7 33 17 -15 7 -28
21 -30 35 -2 18 -10 23 -36 24 -39 1 -70 33 -46 47 8 5 37 12 63 16 42 7 52 5
65 -11 9 -10 21 -18 27 -18 8 0 8 5 -1 15 -19 23 -3 31 19 11 13 -12 21 -14
26 -6 4 6 15 8 26 5 26 -9 24 12 -3 26 -13 7 -29 20 -36 31 -7 10 -22 18 -33
18 -27 0 -24 20 4 21 21 0 21 1 2 8 -12 5 5 7 43 5 56 -3 66 -1 84 19 13 15
21 18 24 10 7 -17 44 -17 44 0 0 14 -53 37 -84 37 -15 0 -16 3 -6 15 11 13 8
15 -21 16 -59 1 -123 18 -73 19 16 1 15 3 -6 16 -24 14 -24 15 -2 11 26 -6 29
8 5 22 -10 5 -14 13 -10 18 5 4 31 -4 58 -19 53 -28 65 -25 22 7 -15 11 -34
28 -43 38 -8 10 -26 29 -39 42 -29 30 -23 31 24 5 19 -11 42 -17 50 -14 9 4
15 1 15 -8 0 -7 23 -36 50 -63 28 -27 50 -44 50 -38 0 6 -3 13 -8 15 -4 2 -23
23 -42 48 -59 75 -73 90 -88 90 -12 0 -11 -5 4 -22 19 -23 19 -23 -2 -5 -11 9
-27 17 -35 18 -9 0 -7 3 4 8 17 6 16 10 -12 40 -34 37 -38 46 -16 37 8 -3 15
-2 15 3 0 4 -19 16 -42 26 -24 10 -47 20 -51 23 -5 2 -11 -5 -14 -16z m-63
-72 c13 -8 13 -10 -2 -10 -9 0 -20 5 -23 10 -8 13 5 13 25 0z m-180 -10 c0 -5
-7 -7 -15 -4 -8 4 -15 8 -15 10 0 2 7 4 15 4 8 0 15 -4 15 -10z m-60 -10 c0
-5 -5 -10 -11 -10 -5 0 -7 5 -4 10 3 6 8 10 11 10 2 0 4 -4 4 -10z m-170 -16
c0 -8 -4 -12 -10 -9 -5 3 -10 10 -10 16 0 5 5 9 10 9 6 0 10 -7 10 -16z m-19
-27 c-1 -12 -15 -9 -19 4 -3 6 1 10 8 8 6 -3 11 -8 11 -12z m-151 -52 c-7 -8
-19 -15 -27 -15 -13 0 -13 3 -3 15 7 8 19 15 27 15 13 0 13 -3 3 -15z m690 -5
c0 -5 -7 -10 -16 -10 -8 0 -12 5 -9 10 3 6 10 10 16 10 5 0 9 -4 9 -10z m-750
-20 c0 -5 -5 -10 -11 -10 -5 0 -7 5 -4 10 3 6 8 10 11 10 2 0 4 -4 4 -10z m25
-30 c-3 -5 -12 -10 -18 -10 -7 0 -6 4 3 10 19 12 23 12 15 0z m-65 -30 c12 -8
9 -10 -12 -10 -16 0 -28 5 -28 10 0 13 20 13 40 0z m90 6 c0 -3 -4 -8 -10 -11
-5 -3 -10 -1 -10 4 0 6 5 11 10 11 6 0 10 -2 10 -4z m660 -96 c-18 -12 -30
-13 -30 -2 0 4 10 9 22 9 18 2 20 0 8 -7z m-500 -105 c0 -8 -4 -15 -10 -15 -5
0 -10 7 -10 15 0 8 5 15 10 15 6 0 10 -7 10 -15z m45 -25 c-10 -11 -21 -18
-23 -15 -3 3 3 12 14 20 27 20 30 18 9 -5z m-515 -30 c-24 -15 -36 -11 -14 4
10 8 21 12 24 10 2 -3 -2 -9 -10 -14z m840 -25 c0 -8 -9 -15 -20 -15 -11 0
-20 -4 -20 -10 0 -5 5 -10 12 -10 6 0 9 -3 5 -6 -3 -4 -13 -4 -21 -1 -27 11
-1 46 42 56 1 1 2 -6 2 -14z m-190 -25 c0 -5 -2 -10 -4 -10 -3 0 -8 5 -11 10
-3 6 -1 10 4 10 6 0 11 -4 11 -10z m215 -10 c-3 -5 -11 -10 -16 -10 -6 0 -7 5
-4 10 3 6 11 10 16 10 6 0 7 -4 4 -10z"/>
<path d="M2895 5870 c-3 -5 -1 -10 4 -10 6 0 11 5 11 10 0 6 -2 10 -4 10 -3 0
-8 -4 -11 -10z"/>
<path d="M3250 5869 c0 -5 5 -7 10 -4 6 3 10 8 10 11 0 2 -4 4 -10 4 -5 0 -10
-5 -10 -11z"/>
<path d="M3340 5865 c-8 -9 -8 -15 -2 -15 12 0 26 19 19 26 -2 2 -10 -2 -17
-11z"/>
<path d="M2643 5841 c-12 -10 -43 -22 -68 -25 -27 -5 -45 -12 -45 -20 0 -8
-14 -16 -30 -20 -17 -3 -33 -14 -37 -23 -4 -10 -11 -21 -17 -25 -6 -5 3 -6 19
-3 161 26 209 40 186 55 -15 8 -30 6 -68 -13 -13 -6 -26 -7 -30 -3 -10 9 25
36 47 36 14 0 70 44 70 55 0 8 -3 6 -27 -14z m-108 -81 c3 -5 -6 -12 -20 -16
-29 -7 -41 -1 -30 15 8 14 42 14 50 1z"/>
<path d="M2725 5852 c-32 -6 -39 -19 -11 -19 15 0 29 4 32 9 8 13 3 15 -21 10z"/>
<path d="M3090 5850 c0 -5 5 -10 10 -10 6 0 10 5 10 10 0 6 -4 10 -10 10 -5 0
-10 -4 -10 -10z"/>
<path d="M3121 5836 c-9 -10 -9 -16 -1 -21 6 -4 12 -5 13 -4 2 2 9 12 16 22
11 14 11 17 -2 17 -8 0 -20 -6 -26 -14z"/>
<path d="M2940 5820 c-8 -5 -12 -12 -9 -15 4 -3 12 1 19 10 14 17 11 19 -10 5z"/>
<path d="M2655 5810 c-3 -5 3 -10 14 -10 11 0 23 5 26 10 3 6 -3 10 -14 10
-11 0 -23 -4 -26 -10z"/>
<path d="M1793 5795 c-3 -9 -3 -18 -1 -21 3 -3 8 4 11 16 6 23 -1 27 -10 5z"/>
<path d="M2443 5789 c-47 -23 -53 -34 -23 -42 15 -4 20 0 20 14 0 14 9 21 30
26 17 3 33 10 36 14 9 15 -19 10 -63 -12z"/>
<path d="M2365 5790 c3 -5 11 -10 16 -10 6 0 7 5 4 10 -3 6 -11 10 -16 10 -6
0 -7 -4 -4 -10z"/>
<path d="M3675 5790 c3 -5 8 -10 11 -10 2 0 4 5 4 10 0 6 -5 10 -11 10 -5 0
-7 -4 -4 -10z"/>
<path d="M2687 5783 c-14 -13 -6 -20 18 -15 14 2 25 8 25 13 0 10 -34 12 -43
2z"/>
<path d="M4000 5771 c0 -11 -2 -25 -5 -33 -3 -7 0 -20 5 -28 8 -12 11 -13 19
-1 6 9 11 10 15 2 14 -22 26 -10 26 24 0 39 -6 43 -27 18 -8 -10 -12 -13 -9
-6 7 14 -3 43 -15 43 -5 0 -9 -9 -9 -19z"/>
<path d="M2830 5760 c8 -5 20 -10 25 -10 6 0 3 5 -5 10 -8 5 -19 10 -25 10 -5
0 -3 -5 5 -10z"/>
<path d="M2320 5730 c-19 -11 -29 -19 -23 -20 7 0 27 9 45 20 42 25 24 25 -22
0z"/>
<path d="M2590 5720 c-14 -4 -20 -9 -15 -10 39 -7 55 -5 55 7 0 14 -4 15 -40
3z"/>
<path d="M2668 5693 c7 -3 16 -2 19 1 4 3 -2 6 -13 5 -11 0 -14 -3 -6 -6z"/>
<path d="M2700 5690 c0 -5 -6 -10 -14 -10 -7 0 -19 -7 -26 -15 -10 -12 -9 -15
8 -15 11 0 22 7 26 15 3 8 13 15 21 15 9 0 13 5 10 10 -3 6 -10 10 -16 10 -5
0 -9 -4 -9 -10z"/>
<path d="M4035 5681 c-6 -11 9 -23 19 -14 9 9 7 23 -3 23 -6 0 -12 -4 -16 -9z"/>
<path d="M2430 5676 c0 -2 7 -6 15 -10 8 -3 15 -1 15 4 0 6 -7 10 -15 10 -8 0
-15 -2 -15 -4z"/>
<path d="M1700 5621 c5 -11 10 -28 10 -39 0 -11 7 -25 15 -32 8 -7 12 -17 9
-22 -4 -6 -2 -13 4 -17 5 -3 12 -29 14 -58 4 -48 16 -83 19 -55 1 7 2 18 3 25
1 6 -2 23 -6 37 -5 13 -11 44 -14 69 -2 26 -14 57 -30 78 -28 36 -40 44 -24
14z"/>
<path d="M6770 5595 c0 -8 2 -15 4 -15 2 0 6 7 10 15 3 8 1 15 -4 15 -6 0 -10
-7 -10 -15z"/>
<path d="M3720 5570 c0 -5 5 -10 10 -10 6 0 10 5 10 10 0 6 -4 10 -10 10 -5 0
-10 -4 -10 -10z"/>
<path d="M4377 5563 c-4 -3 -7 -11 -7 -17 0 -6 5 -5 12 2 6 6 9 14 7 17 -3 3
-9 2 -12 -2z"/>
<path d="M2685 5510 c27 -12 43 -12 25 0 -8 5 -22 9 -30 9 -10 0 -8 -3 5 -9z"/>
<path d="M2788 5503 c7 -3 16 -2 19 1 4 3 -2 6 -13 5 -11 0 -14 -3 -6 -6z"/>
<path d="M6797 5393 c-4 -3 -7 -11 -7 -17 0 -6 5 -5 12 2 6 6 9 14 7 17 -3 3
-9 2 -12 -2z"/>
<path d="M3450 5340 c0 -5 5 -10 10 -10 6 0 10 5 10 10 0 6 -4 10 -10 10 -5 0
-10 -4 -10 -10z"/>
<path d="M6795 5340 c-3 -5 -1 -10 4 -10 6 0 11 5 11 10 0 6 -2 10 -4 10 -3 0
-8 -4 -11 -10z"/>
<path d="M3530 5309 c0 -5 5 -7 10 -4 6 3 10 8 10 11 0 2 -4 4 -10 4 -5 0 -10
-5 -10 -11z"/>
<path d="M1772 5270 c0 -14 2 -19 5 -12 2 6 2 18 0 25 -3 6 -5 1 -5 -13z"/>
<path d="M6655 5260 c-30 -8 -30 -8 8 -9 23 -1 36 3 32 9 -3 6 -7 9 -8 9 -1
-1 -15 -5 -32 -9z"/>
<path d="M6520 5220 c0 -5 5 -10 11 -10 5 0 7 5 4 10 -3 6 -8 10 -11 10 -2 0
-4 -4 -4 -10z"/>
<path d="M5790 5205 c7 -9 15 -13 17 -11 7 7 -7 26 -19 26 -6 0 -6 -6 2 -15z"/>
<path d="M5840 5211 c0 -6 5 -13 10 -16 6 -3 10 1 10 9 0 9 -4 16 -10 16 -5 0
-10 -4 -10 -9z"/>
<path d="M3160 5135 c0 -8 2 -15 4 -15 2 0 6 7 10 15 3 8 1 15 -4 15 -6 0 -10
-7 -10 -15z"/>
<path d="M3060 5096 c0 -9 5 -16 10 -16 6 0 10 4 10 9 0 6 -4 13 -10 16 -5 3
-10 -1 -10 -9z"/>
<path d="M6310 5064 c0 -8 5 -12 10 -9 6 3 10 10 10 16 0 5 -4 9 -10 9 -5 0
-10 -7 -10 -16z"/>
<path d="M6927 5039 c4 -13 8 -18 11 -10 2 7 -1 18 -6 23 -8 8 -9 4 -5 -13z"/>
<path d="M6210 5020 c0 -6 7 -10 15 -10 8 0 15 2 15 4 0 2 -7 6 -15 10 -8 3
-15 1 -15 -4z"/>
<path d="M5192 4987 c-6 -7 -8 -18 -4 -24 5 -7 11 -3 19 13 12 26 3 33 -15 11z"/>
<path d="M6930 4979 c0 -5 5 -7 10 -4 6 3 10 8 10 11 0 2 -4 4 -10 4 -5 0 -10
-5 -10 -11z"/>
<path d="M5251 4864 c0 -11 3 -14 6 -6 3 7 2 16 -1 19 -3 4 -6 -2 -5 -13z"/>
<path d="M6903 4853 c-3 -10 -8 -22 -11 -27 -3 -5 1 -7 8 -4 8 2 14 14 15 26
2 26 -3 28 -12 5z"/>
<path d="M6860 4840 c0 -5 5 -10 11 -10 5 0 7 5 4 10 -3 6 -8 10 -11 10 -2 0
-4 -4 -4 -10z"/>
<path d="M5310 4741 c0 -5 5 -13 10 -16 6 -3 10 -2 10 4 0 5 -4 13 -10 16 -5
3 -10 2 -10 -4z"/>
<path d="M5340 4740 c0 -13 18 -22 24 -11 3 5 -1 11 -9 15 -8 3 -15 1 -15 -4z"/>
<path d="M6800 4714 c0 -8 5 -12 10 -9 6 4 8 11 5 16 -9 14 -15 11 -15 -7z"/>
<path d="M5285 4710 c-3 -5 -1 -10 4 -10 6 0 11 5 11 10 0 6 -2 10 -4 10 -3 0
-8 -4 -11 -10z"/>
<path d="M5250 4650 c0 -5 5 -10 11 -10 5 0 7 5 4 10 -3 6 -8 10 -11 10 -2 0
-4 -4 -4 -10z"/>
<path d="M5240 4609 c0 -5 5 -7 10 -4 6 3 10 8 10 11 0 2 -4 4 -10 4 -5 0 -10
-5 -10 -11z"/>
<path d="M5170 4594 c0 -8 5 -12 10 -9 6 4 8 11 5 16 -9 14 -15 11 -15 -7z"/>
<path d="M6618 4563 c7 -3 16 -2 19 1 4 3 -2 6 -13 5 -11 0 -14 -3 -6 -6z"/>
<path d="M5160 4536 c0 -9 5 -16 10 -16 6 0 10 4 10 9 0 6 -4 13 -10 16 -5 3
-10 -1 -10 -9z"/>
<path d="M5211 4523 c-7 -8 -10 -17 -7 -20 9 -9 29 13 25 25 -2 6 -10 3 -18
-5z"/>
<path d="M5190 4450 c0 -5 5 -10 10 -10 6 0 10 5 10 10 0 6 -4 10 -10 10 -5 0
-10 -4 -10 -10z"/>
<path d="M5130 4434 c0 -14 3 -14 15 -4 8 7 15 14 15 16 0 2 -7 4 -15 4 -8 0
-15 -7 -15 -16z"/>
<path d="M5220 4440 c0 -5 5 -10 11 -10 5 0 7 5 4 10 -3 6 -8 10 -11 10 -2 0
-4 -4 -4 -10z"/>
<path d="M5110 4381 c0 -17 18 -21 24 -6 3 9 0 15 -9 15 -8 0 -15 -4 -15 -9z"/>
<path d="M5170 4350 c0 -5 5 -10 11 -10 5 0 7 5 4 10 -3 6 -8 10 -11 10 -2 0
-4 -4 -4 -10z"/>
<path d="M6500 4319 c0 -5 5 -7 10 -4 6 3 10 8 10 11 0 2 -4 4 -10 4 -5 0 -10
-5 -10 -11z"/>
<path d="M4632 4294 c-16 -18 -12 -36 9 -39 11 -2 14 5 11 26 -2 16 -5 29 -6
29 0 -1 -7 -7 -14 -16z"/>
<path d="M5170 4286 c0 -9 5 -16 10 -16 6 0 10 4 10 9 0 6 -4 13 -10 16 -5 3
-10 -1 -10 -9z"/>
<path d="M5170 4210 c0 -5 5 -10 10 -10 6 0 10 5 10 10 0 6 -4 10 -10 10 -5 0
-10 -4 -10 -10z"/>
<path d="M6300 4120 c0 -5 5 -10 11 -10 5 0 7 5 4 10 -3 6 -8 10 -11 10 -2 0
-4 -4 -4 -10z"/>
<path d="M5220 4106 c0 -9 5 -16 10 -16 6 0 10 4 10 9 0 6 -4 13 -10 16 -5 3
-10 -1 -10 -9z"/>
<path d="M6340 4106 c0 -19 17 -29 25 -16 3 5 1 10 -5 10 -6 0 -8 5 -5 10 3 6
1 10 -4 10 -6 0 -11 -6 -11 -14z"/>
<path d="M6415 4100 c3 -5 11 -10 16 -10 6 0 7 5 4 10 -3 6 -11 10 -16 10 -6
0 -7 -4 -4 -10z"/>
<path d="M6240 4080 c0 -5 5 -10 10 -10 6 0 10 5 10 10 0 6 -4 10 -10 10 -5 0
-10 -4 -10 -10z"/>
<path d="M6292 4023 c-8 -18 -9 -30 -2 -37 7 -7 10 -2 10 13 0 12 4 20 9 17
11 -7 33 18 24 27 -13 14 -28 6 -41 -20z"/>
<path d="M6881 4034 c0 -11 3 -14 6 -6 3 7 2 16 -1 19 -3 4 -6 -2 -5 -13z"/>
<path d="M5370 3930 c0 -5 7 -10 15 -10 8 0 15 5 15 10 0 6 -7 10 -15 10 -8 0
-15 -4 -15 -10z"/>
<path d="M5435 3910 c3 -5 8 -10 11 -10 2 0 4 5 4 10 0 6 -5 10 -11 10 -5 0
-7 -4 -4 -10z"/>
<path d="M6275 3910 c-3 -5 1 -10 10 -10 9 0 13 5 10 10 -3 6 -8 10 -10 10 -2
0 -7 -4 -10 -10z"/>
<path d="M5480 3860 c0 -5 5 -10 10 -10 6 0 10 5 10 10 0 6 -4 10 -10 10 -5 0
-10 -4 -10 -10z"/>
<path d="M6297 3833 c-8 -13 19 -51 29 -40 5 4 4 11 -2 15 -6 4 -13 14 -16 22
-3 9 -7 10 -11 3z"/>
<path d="M6276 3791 c-4 -7 -5 -15 -2 -18 9 -9 19 4 14 18 -4 11 -6 11 -12 0z"/>
<path d="M6270 3741 c0 -6 5 -13 10 -16 6 -3 10 1 10 9 0 9 -4 16 -10 16 -5 0
-10 -4 -10 -9z"/>
<path d="M5520 3730 c0 -5 5 -10 10 -10 6 0 10 5 10 10 0 6 -4 10 -10 10 -5 0
-10 -4 -10 -10z"/>
<path d="M4646 3701 c-4 -5 -2 -12 3 -15 5 -4 12 -2 15 3 4 5 2 12 -3 15 -5 4
-12 2 -15 -3z"/>
<path d="M5590 3660 c0 -5 5 -10 10 -10 6 0 10 5 10 10 0 6 -4 10 -10 10 -5 0
-10 -4 -10 -10z"/>
<path d="M6177 3626 c-3 -8 0 -17 8 -20 11 -4 25 13 25 30 0 11 -29 2 -33 -10z"/>
<path d="M6147 3613 c-4 -3 -7 -19 -7 -35 0 -15 -4 -28 -9 -28 -5 0 -7 -9 -4
-20 3 -13 0 -20 -8 -20 -9 0 -10 -3 -3 -10 7 -7 19 -7 35 -2 13 5 34 6 47 1
16 -6 22 -5 22 6 0 8 -8 15 -17 15 -32 0 -48 16 -35 33 10 11 9 20 -1 41 -8
14 -17 23 -20 19z"/>
<path d="M5820 3600 c0 -5 5 -10 11 -10 5 0 7 5 4 10 -3 6 -8 10 -11 10 -2 0
-4 -4 -4 -10z"/>
<path d="M6060 3590 c0 -5 5 -10 11 -10 5 0 7 5 4 10 -3 6 -8 10 -11 10 -2 0
-4 -4 -4 -10z"/>
<path d="M6100 3570 c0 -5 5 -10 11 -10 5 0 7 5 4 10 -3 6 -8 10 -11 10 -2 0
-4 -4 -4 -10z"/>
<path d="M3856 3548 c-9 -37 -8 -38 39 -38 50 0 57 12 23 41 -31 25 -54 24
-62 -3z"/>
<path d="M6205 3560 c-3 -5 -1 -10 4 -10 6 0 11 5 11 10 0 6 -2 10 -4 10 -3 0
-8 -4 -11 -10z"/>
<path d="M5900 3552 c0 -5 9 -17 20 -27 27 -24 25 -35 -5 -35 -14 0 -25 -4
-25 -10 0 -14 23 -12 46 4 13 10 23 11 31 4 7 -6 21 -7 30 -3 15 5 11 10 -19
22 -21 8 -38 21 -38 28 0 7 -7 16 -16 19 -21 8 -24 8 -24 -2z"/>
<path d="M6081 3531 c-8 -5 -9 -11 -3 -15 5 -3 12 1 16 9 6 17 6 18 -13 6z"/>
<path d="M5850 3480 c0 -5 5 -10 11 -10 5 0 7 5 4 10 -3 6 -8 10 -11 10 -2 0
-4 -4 -4 -10z"/>
<path d="M6077 3474 c-12 -12 4 -24 29 -24 23 0 24 2 10 15 -16 16 -29 19 -39
9z"/>
<path d="M5875 3450 c-3 -5 1 -10 10 -10 9 0 13 5 10 10 -3 6 -8 10 -10 10 -2
0 -7 -4 -10 -10z"/>
<path d="M5915 3451 c-12 -12 -2 -17 35 -18 30 -1 37 2 27 11 -12 12 -53 16
-62 7z"/>
<path d="M6020 3450 c0 -5 5 -10 11 -10 5 0 7 5 4 10 -3 6 -8 10 -11 10 -2 0
-4 -4 -4 -10z"/>
<path d="M4405 3269 c-4 -6 -3 -15 3 -21 6 -6 11 -4 15 6 7 18 -9 31 -18 15z"/>
<path d="M6110 3265 c10 -13 9 -15 -10 -15 -18 0 -20 -3 -11 -14 6 -7 29 -14
51 -14 42 -1 54 12 21 23 -11 3 -22 12 -25 20 -3 8 -13 15 -22 15 -13 0 -14
-3 -4 -15z"/>
<path d="M4360 3245 c0 -18 4 -23 16 -18 15 5 15 3 -1 -20 -11 -17 -14 -34 -9
-49 6 -21 6 -22 -12 -8 -18 14 -18 14 -5 -3 8 -10 23 -16 32 -14 10 3 20 0 23
-7 2 -6 5 -1 5 12 1 13 -5 22 -14 22 -8 0 -15 5 -15 11 0 5 5 7 12 3 8 -5 9
-2 5 10 -5 13 -3 17 7 13 19 -7 9 24 -11 36 -7 4 -13 15 -13 22 0 8 -4 15 -10
15 -5 0 -10 -11 -10 -25z"/>
<path d="M6040 3249 c0 -11 5 -17 10 -14 6 3 10 13 10 21 0 8 -4 14 -10 14 -5
0 -10 -9 -10 -21z"/>
<path d="M4307 3203 c-12 -12 -7 -22 8 -17 8 4 15 10 15 15 0 11 -14 12 -23 2z"/>
<path d="M4710 3146 c0 -9 7 -12 20 -9 11 3 17 9 14 14 -8 14 -34 10 -34 -5z"/>
<path d="M4331 3114 c0 -11 3 -14 6 -6 3 7 2 16 -1 19 -3 4 -6 -2 -5 -13z"/>
<path d="M4960 3108 c0 -9 5 -20 10 -23 13 -8 13 5 0 25 -8 13 -10 13 -10 -2z"/>
<path d="M5050 3100 c0 -5 5 -10 10 -10 6 0 10 5 10 10 0 6 -4 10 -10 10 -5 0
-10 -4 -10 -10z"/>
<path d="M6207 3096 c-4 -10 0 -12 14 -9 22 6 26 23 5 23 -8 0 -16 -6 -19 -14z"/>
<path d="M5000 3065 c7 -9 15 -13 17 -11 7 7 -7 26 -19 26 -6 0 -6 -6 2 -15z"/>
<path d="M5030 3055 c0 -14 4 -25 10 -25 5 0 6 8 3 17 -5 13 -2 15 12 10 15
-6 16 -5 5 8 -18 22 -30 18 -30 -10z"/>
<path d="M4980 3038 c0 -14 -9 -34 -21 -47 -12 -12 -19 -25 -16 -27 3 -3 13 6
23 19 11 13 25 22 32 19 17 -5 15 26 -3 44 -13 14 -15 13 -15 -8z"/>
<path d="M4357 3044 c-4 -4 -3 -12 2 -18 5 -6 11 -20 14 -31 4 -16 5 -16 6 5
1 28 -12 54 -22 44z"/>
<path d="M4810 3025 c0 -8 5 -15 10 -15 6 0 10 5 10 11 0 5 5 7 12 3 7 -4 8
-3 4 4 -10 17 -36 15 -36 -3z"/>
<path d="M4342 3000 c0 -14 2 -19 5 -12 2 6 2 18 0 25 -3 6 -5 1 -5 -13z"/>
<path d="M4863 3005 c-3 -9 -3 -18 -1 -21 3 -3 8 4 11 16 6 23 -1 27 -10 5z"/>
<path d="M4762 2985 c-15 -32 -15 -46 -1 -22 5 9 16 17 24 17 9 0 12 6 9 15
-9 22 -19 18 -32 -10z"/>
<path d="M4831 2974 c0 -11 3 -14 6 -6 3 7 2 16 -1 19 -3 4 -6 -2 -5 -13z"/>
<path d="M4325 2960 c-3 -5 -1 -10 4 -10 6 0 11 5 11 10 0 6 -2 10 -4 10 -3 0
-8 -4 -11 -10z"/>
<path d="M4904 2940 c5 -45 16 -49 16 -7 0 21 -4 37 -10 37 -5 0 -8 -14 -6
-30z"/>
<path d="M4370 2910 c0 -5 5 -10 10 -10 6 0 10 5 10 10 0 6 -4 10 -10 10 -5 0
-10 -4 -10 -10z"/>
<path d="M4880 2910 c0 -5 5 -10 10 -10 6 0 10 5 10 10 0 6 -4 10 -10 10 -5 0
-10 -4 -10 -10z"/>
<path d="M4967 2858 c3 -78 5 -83 15 -40 5 23 13 42 19 42 5 0 9 9 9 20 0 11
-4 20 -10 20 -5 0 -10 -8 -10 -17 0 -16 -1 -16 -12 0 -11 15 -13 11 -11 -25z"/>
<path d="M4900 2804 c0 -9 5 -14 12 -12 18 6 21 28 4 28 -9 0 -16 -7 -16 -16z"/>
<path d="M4925 2740 c3 -5 8 -10 11 -10 2 0 4 5 4 10 0 6 -5 10 -11 10 -5 0
-7 -4 -4 -10z"/>
<path d="M4873 2713 c-13 -19 -14 -28 -6 -30 13 -5 23 -5 22 0 0 1 4 14 10 30
14 35 -3 36 -26 0z"/>
<path d="M4920 2716 c0 -2 7 -9 15 -16 9 -7 15 -8 15 -2 0 5 -7 12 -15 16 -8
3 -15 4 -15 2z"/>
<path d="M4907 2681 c-3 -12 -1 -21 3 -21 15 0 23 21 12 32 -6 6 -11 2 -15
-11z"/>
<path d="M3305 2608 c-7 -23 -15 -32 -27 -30 -11 2 -18 -3 -18 -13 0 -8 -4
-15 -10 -15 -5 0 -10 -9 -10 -20 0 -17 4 -18 25 -10 14 5 29 9 33 8 9 -3 49
10 91 29 19 8 51 18 73 20 46 7 57 19 32 39 -12 9 -34 13 -61 11 -25 -3 -44 0
-48 7 -3 8 -7 7 -11 -1 -7 -15 -44 -17 -44 -3 0 22 -16 8 -25 -22z"/>
<path d="M4540 2600 c0 -5 5 -10 11 -10 5 0 7 5 4 10 -3 6 -8 10 -11 10 -2 0
-4 -4 -4 -10z"/>
<path d="M4154 2509 c-6 -10 46 -15 91 -8 22 3 38 7 35 9 -11 6 -122 5 -126
-1z"/>
<path d="M4740 2420 c0 -5 7 -10 16 -10 8 0 12 5 9 10 -3 6 -10 10 -16 10 -5
0 -9 -4 -9 -10z"/>
<path d="M5355 2420 c-3 -5 1 -10 10 -10 9 0 13 5 10 10 -3 6 -8 10 -10 10 -2
0 -7 -4 -10 -10z"/>
<path d="M5455 2420 c3 -5 8 -10 11 -10 2 0 4 5 4 10 0 6 -5 10 -11 10 -5 0
-7 -4 -4 -10z"/>
<path d="M4942 2370 c0 -14 2 -19 5 -12 2 6 2 18 0 25 -3 6 -5 1 -5 -13z"/>
<path d="M5995 2301 c-3 -5 -1 -12 5 -16 5 -3 10 1 10 9 0 18 -6 21 -15 7z"/>
<path d="M5360 2240 c0 -5 5 -10 11 -10 5 0 7 5 4 10 -3 6 -8 10 -11 10 -2 0
-4 -4 -4 -10z"/>
<path d="M5545 2240 c3 -5 8 -10 11 -10 2 0 4 5 4 10 0 6 -5 10 -11 10 -5 0
-7 -4 -4 -10z"/>
<path d="M5617 2200 c3 -11 9 -20 14 -20 11 0 11 3 3 24 -9 23 -23 20 -17 -4z"/>
<path d="M5380 2196 c0 -9 5 -16 10 -16 6 0 10 4 10 9 0 6 -4 13 -10 16 -5 3
-10 -1 -10 -9z"/>
<path d="M5570 2184 c0 -8 5 -12 10 -9 6 4 8 11 5 16 -9 14 -15 11 -15 -7z"/>
<path d="M5660 2155 c0 -15 4 -24 10 -20 6 3 10 12 10 20 0 8 -4 17 -10 20 -6
4 -10 -5 -10 -20z"/>
<path d="M5340 2156 c0 -2 7 -6 15 -10 8 -3 15 -1 15 4 0 6 -7 10 -15 10 -8 0
-15 -2 -15 -4z"/>
<path d="M5380 2140 c0 -5 5 -10 10 -10 6 0 10 5 10 10 0 6 -4 10 -10 10 -5 0
-10 -4 -10 -10z"/>
<path d="M5875 2080 c-18 -19 -17 -20 6 -19 13 0 18 3 11 6 -10 4 -9 8 5 19
10 7 13 14 7 14 -6 0 -19 -9 -29 -20z"/>
<path d="M4747 1987 c3 -15 9 -27 14 -27 13 0 11 13 -5 35 -13 18 -14 18 -9
-8z"/>
<path d="M4820 1980 c26 -36 40 -46 40 -27 0 8 -7 17 -15 21 -8 3 -15 12 -15
21 0 8 -7 15 -16 15 -13 0 -12 -5 6 -30z"/>
<path d="M5275 2000 c-3 -5 -1 -10 4 -10 6 0 11 5 11 10 0 6 -2 10 -4 10 -3 0
-8 -4 -11 -10z"/>
<path d="M4785 1960 c3 -5 11 -10 16 -10 6 0 7 5 4 10 -3 6 -11 10 -16 10 -6
0 -7 -4 -4 -10z"/>
<path d="M4815 1857 c10 -15 20 -25 23 -22 3 3 -5 16 -17 28 l-23 22 17 -28z"/>
<path d="M5020 1865 c-7 -9 -8 -15 -2 -15 5 0 12 7 16 15 3 8 4 15 2 15 -2 0
-9 -7 -16 -15z"/>
<path d="M4780 1838 c0 -15 5 -30 10 -33 13 -8 13 25 0 45 -8 12 -10 9 -10
-12z"/>
<path d="M5113 1394 c-7 -7 -9 -15 -5 -17 4 -3 13 1 19 9 7 7 9 15 5 17 -4 3
-13 -1 -19 -9z"/>
<path d="M5180 1372 c6 -13 14 -21 18 -18 3 4 -2 14 -12 24 -18 16 -18 16 -6
-6z"/>
<path d="M5563 1113 c-7 -3 -13 -12 -13 -21 0 -15 2 -15 17 1 18 18 16 27 -4
20z"/>
<path d="M5018 1036 c-3 -13 1 -37 8 -52 l12 -29 -3 32 c-2 18 0 35 5 38 10 6
2 35 -10 35 -4 0 -10 -11 -12 -24z"/>
<path d="M5066 1007 c3 -10 9 -15 12 -12 3 3 0 11 -7 18 -10 9 -11 8 -5 -6z"/>
<path d="M5076 955 c4 -8 8 -15 10 -15 2 0 4 7 4 15 0 8 -4 15 -10 15 -5 0 -7
-7 -4 -15z"/>
<path d="M4970 950 c0 -5 5 -10 10 -10 6 0 10 5 10 10 0 6 -4 10 -10 10 -5 0
-10 -4 -10 -10z"/>
<path d="M5090 921 c0 -6 5 -13 10 -16 6 -3 10 1 10 9 0 9 -4 16 -10 16 -5 0
-10 -4 -10 -9z"/>
<path d="M4686 731 c-8 -12 4 -70 16 -77 6 -4 14 -1 18 6 4 7 13 9 21 5 9 -6
11 -3 6 9 -4 10 -7 20 -7 23 0 3 -6 0 -14 -6 -17 -14 -41 11 -32 34 6 16 1 20
-8 6z"/>
<path d="M4322 658 c-17 -17 -15 -28 7 -28 14 0 19 6 18 20 -1 23 -8 25 -25 8z"/>
<path d="M4365 640 c-3 -5 -1 -10 4 -10 6 0 11 5 11 10 0 6 -2 10 -4 10 -3 0
-8 -4 -11 -10z"/>
<path d="M4493 635 c-3 -9 -3 -18 0 -21 9 -9 27 6 27 22 0 19 -19 18 -27 -1z"/>
</g>
</svg>
