<?xml version="1.0" standalone="no"?>
<!DOCTYPE svg PUBLIC "-//W3C//DTD SVG 20010904//EN"
 "http://www.w3.org/TR/2001/REC-SVG-20010904/DTD/svg10.dtd">
<svg version="1.0" xmlns="http://www.w3.org/2000/svg"
 width="824.000000pt" height="824.000000pt" viewBox="0 0 824.000000 824.000000"
 preserveAspectRatio="xMidYMid meet">
<metadata>
Created by potrace 1.11, written by Peter Selinger 2001-2013
</metadata>
<g transform="translate(0.000000,824.000000) scale(0.100000,-0.100000)"
fill="#000000" stroke="none">
<path d="M817 8234 c-1 -1 -29 -4 -62 -8 -70 -7 -106 -14 -145 -28 -8 -3 -37
-14 -65 -24 -203 -72 -382 -257 -459 -474 -48 -139 -46 72 -43 -3565 1 -1865
6 -3401 10 -3415 4 -14 10 -36 13 -50 4 -24 17 -58 57 -150 39 -90 125 -196
218 -271 57 -45 219 -137 219 -123 0 3 6 2 12 -4 13 -10 61 -24 128 -38 51
-10 6754 -12 6820 -2 77 12 204 54 251 83 21 14 42 25 47 25 13 0 129 96 169
141 99 109 167 241 200 389 4 19 9 1556 10 3415 2 2880 1 3390 -11 3447 -37
173 -105 300 -220 413 -68 67 -93 88 -128 106 -13 6 -25 15 -28 20 -19 28
-220 95 -317 105 -53 6 -6670 13 -6676 8z"/>
</g>
</svg>
