<?xml version="1.0" standalone="no"?>
<!DOCTYPE svg PUBLIC "-//W3C//DTD SVG 20010904//EN"
 "http://www.w3.org/TR/2001/REC-SVG-20010904/DTD/svg10.dtd">
<svg version="1.0" xmlns="http://www.w3.org/2000/svg"
 width="700.000000pt" height="700.000000pt" viewBox="0 0 700.000000 700.000000"
 preserveAspectRatio="xMidYMid meet">
<metadata>
Created by potrace 1.11, written by Peter Selinger 2001-2013
</metadata>
<g transform="translate(0.000000,700.000000) scale(0.100000,-0.100000)"
fill="#000000" stroke="none">
<path d="M906 6989 c-148 -22 -316 -87 -445 -174 -185 -124 -355 -356 -416
-570 -46 -160 -44 -58 -42 -2770 1 -1408 6 -2573 10 -2590 4 -16 10 -43 13
-60 4 -16 17 -64 31 -105 111 -334 384 -587 742 -688 l96 -27 2565 -2 c2723
-2 2645 -3 2787 42 301 98 533 303 659 583 24 53 54 139 66 191 l23 96 0 2575
c0 1416 -4 2595 -8 2620 -40 222 -148 431 -303 584 -113 112 -280 213 -424
257 -167 50 -44 48 -2760 47 -1394 0 -2562 -4 -2594 -9z"/>
</g>
</svg>
